<svg xmlns="http://www.w3.org/2000/svg" xmlns:xlink="http://www.w3.org/1999/xlink" width="500" zoomAndPan="magnify" viewBox="0 0 375 374.999991" height="500" preserveAspectRatio="xMidYMid meet" version="1.0"><defs><g/><clipPath id="a3f49f533f"><path d="M 27.488281 99.394531 L 156.035156 99.394531 L 156.035156 227.945312 L 27.488281 227.945312 Z M 27.488281 99.394531 " clip-rule="nonzero"/></clipPath><clipPath id="8e4726ade6"><path d="M 91.761719 99.394531 C 56.261719 99.394531 27.488281 128.171875 27.488281 163.671875 C 27.488281 199.167969 56.261719 227.945312 91.761719 227.945312 C 127.261719 227.945312 156.035156 199.167969 156.035156 163.671875 C 156.035156 128.171875 127.261719 99.394531 91.761719 99.394531 Z M 91.761719 99.394531 " clip-rule="nonzero"/></clipPath><clipPath id="ed8e0564e6"><path d="M 11 73 L 159 73 L 159 188 L 11 188 Z M 11 73 " clip-rule="nonzero"/></clipPath><clipPath id="6345d636bd"><path d="M 2.371094 89.28125 L 151.238281 61.160156 L 171.007812 165.808594 L 22.140625 193.933594 Z M 2.371094 89.28125 " clip-rule="nonzero"/></clipPath><clipPath id="b43b11ec33"><path d="M 2.371094 89.28125 L 151.238281 61.160156 L 171.007812 165.808594 L 22.140625 193.933594 Z M 2.371094 89.28125 " clip-rule="nonzero"/></clipPath></defs><g clip-path="url(#a3f49f533f)"><g clip-path="url(#8e4726ade6)"><path fill="#ffe4cf" d="M 27.488281 99.394531 L 156.035156 99.394531 L 156.035156 227.945312 L 27.488281 227.945312 Z M 27.488281 99.394531 " fill-opacity="1" fill-rule="nonzero"/></g></g><g clip-path="url(#ed8e0564e6)"><g clip-path="url(#6345d636bd)"><g clip-path="url(#b43b11ec33)"><path fill="#d90429" d="M 157.855469 100.851562 C 155.542969 91.773438 146.984375 84.824219 137.707031 84.144531 C 131.746094 83.695312 125.398438 85.558594 120.753906 89.375 C 120.375 88.601562 119.957031 87.847656 119.507812 87.121094 C 114.132812 78.304688 103.566406 73.675781 93.464844 73.566406 C 91.472656 73.53125 89.484375 73.648438 87.515625 73.886719 C 81.789062 74.292969 77.105469 77.304688 72.949219 80.910156 C 62.128906 90.269531 54.398438 104.191406 40.0625 108.457031 C 39.8125 108.523438 39.632812 108.753906 39.65625 109.023438 C 39.679688 109.316406 39.9375 109.535156 40.230469 109.507812 C 42.757812 109.355469 45.25 108.796875 47.628906 107.917969 C 54.722656 105.28125 60.6875 100.101562 66.082031 95.082031 C 72.417969 89.476562 79.527344 80.664062 87.945312 79.953125 C 98.277344 78.515625 109.617188 81.074219 116.667969 89.210938 C 117.320312 89.945312 117.929688 90.722656 118.496094 91.535156 C 117.335938 92.835938 116.351562 94.292969 115.59375 95.902344 C 114.695312 97.914062 114.316406 100.226562 114.769531 102.347656 C 114.820312 102.570312 115.011719 102.75 115.257812 102.765625 C 115.554688 102.789062 115.8125 102.5625 115.832031 102.265625 C 115.980469 100.34375 116.707031 98.601562 117.769531 97.101562 C 118.496094 96.121094 119.324219 95.226562 120.234375 94.414062 C 120.835938 93.878906 121.472656 93.382812 122.136719 92.925781 C 127.933594 88.921875 135.949219 87.859375 142.320312 90.523438 C 146.753906 92.40625 150.4375 96.101562 152.074219 100.636719 C 152.8125 102.785156 153.085938 105.058594 153.273438 107.304688 C 153.808594 114.039062 151.695312 120.949219 146.335938 125.148438 C 143.121094 127.722656 139.359375 129.621094 135.382812 130.707031 C 127.914062 132.933594 121.394531 131.171875 114.445312 129.800781 C 118.941406 127.011719 122.929688 122.3125 122.015625 116.820312 C 121.914062 116.242188 121.0625 116.238281 120.953125 116.8125 C 120.171875 120.328125 117.957031 122.90625 115.183594 125.023438 C 113.296875 126.488281 111.183594 127.589844 109.195312 128.921875 C 109.191406 128.921875 109.191406 128.921875 109.191406 128.921875 C 108.300781 128.808594 107.394531 128.71875 106.476562 128.65625 C 104.273438 128.523438 102.089844 128.558594 99.925781 128.730469 C 99.925781 128.730469 99.925781 128.730469 99.921875 128.730469 C 103.773438 124.667969 106.242188 118.96875 106.34375 113.742188 C 106.441406 111.015625 106.03125 108.097656 104.4375 105.816406 C 104.082031 105.300781 103.273438 105.742188 103.496094 106.316406 C 104.308594 108.625 104.199219 111.117188 103.753906 113.488281 C 102.660156 119.960938 98.636719 125.605469 93.375 129.382812 C 93.21875 129.507812 93.054688 129.621094 92.894531 129.742188 C 90.503906 130.234375 88.132812 130.863281 85.785156 131.582031 C 85.910156 131.386719 86.027344 131.1875 86.140625 130.988281 C 88.207031 127.402344 89.167969 122.953125 88.195312 118.9375 C 88.144531 118.710938 87.945312 118.535156 87.699219 118.527344 C 87.398438 118.511719 87.140625 118.75 87.136719 119.054688 C 87.082031 120.265625 86.90625 121.445312 86.625 122.585938 C 85.757812 125.941406 83.863281 128.988281 81.359375 131.351562 C 74.992188 137.425781 63.902344 138.558594 55.8125 135.882812 C 51.410156 134.273438 47.660156 131.023438 43.714844 128.304688 C 43.226562 127.972656 42.648438 128.546875 42.945312 129.039062 C 44.292969 131.199219 45.8125 133.238281 47.609375 135.140625 C 51.316406 139.15625 55.714844 141.238281 60.71875 141.886719 C 59.144531 142.75 57.621094 143.699219 56.175781 144.761719 C 52.328125 147.515625 48.730469 151.152344 44.132812 152.160156 C 34.246094 155.507812 21.675781 142.796875 17.910156 134.453125 C 14.613281 127.375 16.335938 118.339844 22.203125 113.085938 C 29.609375 106.347656 40.160156 104.546875 48.605469 99.050781 C 52.542969 96.644531 55.617188 93.0625 58.898438 89.933594 C 59.371094 89.484375 58.773438 88.734375 58.222656 89.109375 C 54.585938 91.75 51.351562 94.875 47.339844 96.875 C 41.429688 99.9375 34.691406 101.566406 28.472656 104.230469 C 24.082031 106.074219 19.707031 108.660156 16.574219 112.378906 C 11.148438 118.632812 9.667969 127.875 12.703125 135.601562 C 15.695312 143.410156 23.332031 151.59375 30.660156 155.597656 C 35.117188 158.0625 40.699219 159.339844 45.769531 157.691406 C 47.148438 157.390625 48.449219 156.917969 49.660156 156.347656 C 49.660156 156.347656 49.660156 156.347656 49.664062 156.347656 C 51.738281 162.496094 53.679688 168.699219 55.359375 174.953125 C 56.386719 178.695312 57.347656 183.230469 58.003906 187.0625 C 58.003906 187.0625 62.261719 183.996094 62.261719 183.996094 C 66.394531 181.0625 71.296875 178.789062 76.054688 176.824219 C 89.171875 171.605469 108.988281 165.90625 122.980469 168.40625 C 123.25 168.464844 123.523438 168.304688 123.601562 168.039062 C 123.6875 167.753906 123.527344 167.460938 123.246094 167.375 C 109.050781 163.5 88.242188 167.53125 74.234375 171.703125 C 70.214844 172.964844 66.308594 174.320312 62.511719 176.117188 C 60.175781 168.453125 57.304688 160.996094 54.320312 153.5625 C 54.324219 153.5625 54.324219 153.5625 54.324219 153.5625 C 56.933594 151.714844 59.242188 149.722656 61.992188 148.058594 C 65.289062 146.066406 68.894531 144.574219 72.507812 143.066406 C 77.96875 140.789062 83.558594 138.558594 89.203125 136.984375 C 95.671875 135.1875 102.269531 134.234375 108.902344 135.097656 C 112.78125 135.617188 116.546875 136.617188 120.4375 137.261719 C 120.441406 137.261719 120.441406 137.261719 120.441406 137.261719 C 120.992188 143.550781 122.207031 149.890625 123.207031 156.128906 C 116.910156 155.261719 110.523438 155.347656 104.210938 156.003906 C 96.488281 156.890625 88.6875 158.832031 82.027344 162.941406 C 81.800781 163.082031 81.710938 163.371094 81.828125 163.621094 C 81.953125 163.886719 82.269531 164 82.535156 163.875 C 85.945312 162.265625 89.582031 161.25 93.261719 160.609375 C 102.429688 159.082031 111.921875 159.605469 120.953125 161.617188 C 122.734375 162.023438 124.476562 162.523438 126.117188 163.109375 C 126.117188 163.109375 130.851562 164.351562 130.851562 164.351562 C 130.664062 163.078125 130.152344 159.160156 129.9375 157.945312 C 128.824219 151.460938 127.25 144.519531 126.417969 137.871094 C 134.929688 138.074219 143.511719 135.144531 150.074219 129.699219 C 158.703125 122.65625 160.414062 111.183594 157.855469 100.851562 Z M 157.855469 100.851562 " fill-opacity="1" fill-rule="nonzero"/></g></g></g><path stroke-linecap="butt" transform="matrix(0.997776, 0, 0, 0.997776, 5.887557, 184.666687)" fill="none" stroke-linejoin="miter" d="M 38.506686 33.000464 C 37.500542 33.000464 36.70972 32.757737 36.134221 32.276197 C 35.566552 31.786828 35.151567 31.152604 34.889265 30.373528 C 34.626963 29.594451 34.478194 28.77231 34.446875 27.911019 C 34.41164 27.037984 34.41164 26.239332 34.446875 25.51115 C 34.556493 22.598421 34.713092 19.705268 34.916669 16.827773 C 35.128077 13.950279 35.178972 11.037551 35.065438 8.093502 C 34.137593 8.124822 33.123619 8.152227 32.031346 8.167887 C 30.942987 8.183546 29.917268 8.011288 28.962019 7.647197 C 28.014599 7.283106 27.294247 6.597989 26.800962 5.591844 C 26.319422 4.59353 26.245038 3.556066 26.573894 2.479453 C 26.902751 1.406754 27.591783 0.639423 28.629247 0.181373 C 29.427899 -0.198378 30.422298 -0.343232 31.612445 -0.249273 C 32.806507 -0.163144 34.016229 -0.0261202 35.245526 0.169628 C 36.482653 0.357546 37.535776 0.482824 38.404897 0.549379 C 39.896496 0.619848 41.470309 0.635508 43.130251 0.600273 C 44.798023 0.568953 46.324857 0.88215 47.710752 1.539863 C 48.337145 1.82174 48.865664 2.2563 49.300225 2.847459 C 49.73087 3.430788 49.981427 4.072841 50.047982 4.765788 C 50.114536 5.458736 49.907043 6.120364 49.425503 6.746757 C 48.975283 7.330086 48.290166 7.717667 47.37015 7.913414 C 46.45405 8.101332 45.502716 8.183546 44.512231 8.167887 C 43.521747 8.152227 42.680031 8.144397 41.987083 8.144397 C 42.096702 8.837344 42.26896 9.921788 42.507773 11.393812 C 42.7505 12.865836 42.985398 14.529693 43.204635 16.381468 C 43.431703 18.237158 43.564811 20.128083 43.600046 22.058157 C 43.631366 23.976487 43.510002 25.765622 43.23204 27.41382 C 42.957993 29.054187 42.452963 30.389188 41.705206 31.414907 C 40.961364 32.436711 39.896496 32.96523 38.506686 33.000464 Z M 57.439422 31.908191 C 56.014377 31.180009 54.922104 30.19344 54.150858 28.948483 C 53.387441 27.695697 52.835432 26.317631 52.487 24.810373 C 52.146399 23.303114 51.907587 21.764535 51.762733 20.190722 C 51.629625 18.609079 51.473026 17.14097 51.292938 15.786395 C 51.191149 14.889869 51.085446 13.793681 50.975827 12.49783 C 50.874038 11.194149 50.850548 9.839574 50.901442 8.434104 C 50.960167 7.028634 51.171575 5.713208 51.535666 4.487826 C 51.899757 3.2507 52.49483 2.252385 53.324801 1.488969 C 54.154772 0.729467 55.29794 0.345801 56.754305 0.345801 C 57.905302 0.345801 58.813572 0.651168 59.48303 1.261901 C 60.160318 1.86089 60.653603 2.639966 60.966799 3.599131 C 61.279996 4.546551 61.479659 5.56444 61.565788 6.656713 C 61.655832 7.748986 61.683236 8.813855 61.640172 9.855234 C 61.604937 10.896612 61.573618 11.797053 61.538383 12.560469 C 61.503148 14.161687 61.463999 15.876439 61.413104 17.716469 C 61.36221 19.552584 61.628427 21.232101 62.211756 22.75502 C 62.599337 23.69461 63.104366 24.387557 63.72293 24.837777 C 64.349323 25.284082 64.991376 25.417191 65.653004 25.229273 C 66.310717 25.03744 66.882301 24.450196 67.367755 23.479287 C 68.025468 22.167776 68.397389 20.738816 68.483518 19.200238 C 68.565732 17.649915 68.608797 16.166146 68.608797 14.745016 C 68.608797 13.778021 68.530498 12.740557 68.369985 11.632624 C 68.217301 10.516861 68.107682 9.405013 68.037213 8.293165 C 67.970659 7.185232 68.076363 6.183003 68.354325 5.286478 C 68.636202 4.456507 69.066847 3.755729 69.650176 3.18023 C 70.245249 2.604732 70.918622 2.27196 71.682039 2.189746 C 72.445456 2.103617 73.204958 2.393324 73.968374 3.051037 C 74.594768 3.567811 75.025413 4.213779 75.264225 4.992856 C 75.506953 5.771932 75.647891 6.590159 75.683126 7.443619 C 75.714446 8.28925 75.714446 9.076157 75.683126 9.804339 C 75.714446 11.229384 75.730105 12.814942 75.730105 14.564928 C 75.730105 16.318829 75.643976 18.10405 75.463888 19.924505 C 75.295545 21.744961 74.962774 23.459712 74.461659 25.07659 C 73.964459 26.685637 73.228447 28.059788 72.253623 29.202955 C 71.490206 30.099481 70.491892 30.855068 69.25868 31.465801 C 68.029383 32.072619 66.706127 32.49935 65.284998 32.745992 C 63.859953 32.984805 62.458398 33.043529 61.068588 32.922165 C 59.690523 32.804717 58.480801 32.46803 57.439422 31.908191 Z M 105.589489 32.745992 C 104.861307 32.46803 104.332788 31.998235 104.003931 31.336607 C 103.675075 30.674979 103.451922 29.950712 103.342303 29.152061 C 103.240514 28.357324 103.17396 27.648717 103.14264 27.022324 C 103.005617 25.080505 102.946892 23.142601 102.962552 21.204696 C 102.978212 19.258962 102.849019 17.313228 102.571057 15.367494 C 101.909429 16.025207 101.149927 16.827773 100.296466 17.767363 C 99.450835 18.695208 98.53082 19.51735 97.540336 20.229872 C 96.561596 20.938479 95.547622 21.259506 94.506243 21.192952 C 93.680187 21.126397 92.94026 20.817116 92.298207 20.265106 C 91.656154 19.709182 91.064995 19.01232 90.520816 18.186264 C 89.988382 17.348463 89.514672 16.502832 89.099686 15.657201 C 88.684701 14.81157 88.285375 14.091218 87.905624 13.500059 C 87.314466 14.8194 86.958205 16.24053 86.840756 17.767363 C 86.723307 19.290282 86.641093 20.832775 86.598028 22.398759 C 86.566709 23.956912 86.41011 25.47983 86.128233 26.971429 C 85.858101 28.459113 85.251283 29.825434 84.311693 31.07039 C 83.485637 32.186153 82.514727 32.745992 81.406794 32.745992 C 80.298861 32.745992 79.343611 32.170493 78.548875 31.019496 C 77.957716 30.12297 77.59754 29.136401 77.472262 28.059788 C 77.350898 26.987089 77.350898 25.886986 77.472262 24.759478 C 77.59754 23.635885 77.711074 22.586677 77.812863 21.611852 C 78.024271 19.529094 78.278743 17.454167 78.57628 15.379239 C 78.869902 13.296481 79.171353 11.233299 79.47672 9.181861 C 79.652893 7.972139 79.844726 6.672373 80.048304 5.286478 C 80.259712 3.896668 80.764741 2.698691 81.559478 1.692546 C 82.463833 0.584613 83.415168 -0.045695 84.413482 -0.198378 C 85.423541 -0.358892 86.437515 -0.186633 87.463234 0.322311 C 88.485038 0.823426 89.455948 1.508543 90.368133 2.377664 C 91.292063 3.24287 92.133779 4.15114 92.897196 5.110305 C 93.656697 6.057724 94.283091 6.895525 94.776375 7.623708 C 95.222681 6.895525 95.794264 6.03815 96.487212 5.05941 C 97.184074 4.068926 97.951406 3.101931 98.797037 2.162341 C 99.646583 1.222751 100.547023 0.443675 101.502273 -0.170974 C 102.457523 -0.797367 103.444092 -1.122308 104.461981 -1.137968 C 105.483785 -1.153628 106.517334 -0.715153 107.558713 0.181373 C 108.220341 0.741212 108.697966 1.426329 108.991587 2.24064 C 109.289124 3.051037 109.504447 3.892753 109.64147 4.765788 C 109.774579 5.627079 109.915517 6.45705 110.060371 7.255701 C 110.404887 9.166201 110.698509 11.08453 110.937321 13.006775 C 111.180049 14.925104 111.336647 16.859093 111.407116 18.804827 C 111.438436 19.290282 111.465841 20.018464 111.481501 20.989374 C 111.50499 21.964198 111.481501 23.036897 111.407116 24.215299 C 111.336647 25.389786 111.199624 26.560359 110.988216 27.719186 C 110.784638 28.878014 110.467527 29.911563 110.032966 30.815918 C 109.602321 31.712443 109.030737 32.358411 108.32213 32.745992 C 107.609607 33.125743 106.701337 33.125743 105.589489 32.745992 Z M 130.281128 28.885844 C 128.691655 27.261136 127.564148 25.428936 126.906435 23.389243 C 126.244807 21.34172 125.982505 19.208068 126.119528 16.992202 C 126.264382 14.764591 126.734177 12.615279 127.528913 10.540351 C 128.323649 8.461509 129.365028 6.586244 130.649134 4.918472 C 131.134589 4.256844 131.796217 3.497342 132.645763 2.632136 C 133.499224 1.770845 134.446644 0.940874 135.488022 0.146138 C 136.529401 -0.660343 137.613844 -1.310226 138.737437 -1.811341 C 139.864945 -2.320285 140.945474 -2.563013 141.986852 -2.547353 C 143.028231 -2.531693 143.979566 -2.101048 144.844772 -1.263247 C 145.815681 -0.335402 146.41467 0.678572 146.633907 1.770845 C 146.860975 2.863119 146.723951 3.849688 146.215007 4.738384 C 145.717807 5.619249 144.860431 6.249557 143.650709 6.633223 C 142.092556 7.087358 140.647937 7.819455 139.309021 8.829515 C 137.970106 9.827829 136.889577 11.037551 136.059606 12.45868 C 135.229635 13.87981 134.75984 15.457538 134.650221 17.19578 C 134.614987 18.50729 134.865544 19.795312 135.397978 21.067673 C 135.942157 22.328289 136.819108 23.271794 138.040575 23.898187 C 138.48688 24.109595 139.058464 24.274023 139.755326 24.391472 C 140.448274 24.512836 141.129477 24.520666 141.798934 24.418877 C 142.476222 24.317088 142.969507 24.003891 143.282703 23.479287 C 143.5959 22.962512 143.689859 22.586677 143.560665 22.347864 C 143.443217 22.105137 143.212234 21.921134 142.863803 21.803685 C 142.515372 21.674491 142.143451 21.553128 141.74804 21.435679 C 141.348714 21.306485 141.031603 21.106822 140.79279 20.83669 C 140.236866 20.245532 139.9315 19.388156 139.880605 18.260648 C 139.829711 17.13314 139.978479 16.20921 140.322995 15.481028 C 140.773215 14.541438 141.430928 13.899385 142.292219 13.550954 C 143.165255 13.202522 144.10876 13.085074 145.122734 13.194693 C 146.148453 13.296481 147.154597 13.582273 148.145081 14.044238 C 149.135565 14.510118 149.992941 15.101277 150.721123 15.809884 C 151.449306 16.522407 151.93476 17.297568 152.181403 18.135369 C 152.799966 20.38647 152.909585 22.410503 152.510259 24.215299 C 152.114848 26.01618 151.335772 27.570418 150.176944 28.874099 C 149.018117 30.16995 147.612647 31.172179 145.960535 31.884701 C 144.320167 32.593309 142.566266 32.97306 140.706661 33.023954 C 138.850971 33.074849 137.022686 32.761652 135.221805 32.084364 C 133.41701 31.407077 131.772727 30.342208 130.281128 28.885844 Z M 157.529235 32.683353 C 156.18249 32.303602 155.282049 31.653719 154.823999 30.741534 C 154.377694 29.817604 154.201521 28.760565 154.30331 27.566503 C 154.412929 26.372441 154.632166 25.178379 154.964938 23.988231 C 155.293794 22.786339 155.579586 21.697981 155.814484 20.723157 C 156.440877 18.158859 157.133824 15.602392 157.897241 13.053754 C 158.656743 10.509031 159.455394 7.968224 160.281451 5.439161 C 160.978313 3.289849 161.984457 1.547693 163.303798 0.220522 C 164.627054 -1.118393 166.494489 -1.819171 168.917848 -1.885725 C 170.268508 -1.92879 171.380356 -1.611678 172.241647 -0.93439 C 173.114682 -0.257103 173.81546 0.627678 174.347894 1.719951 C 174.892073 2.812224 175.354038 3.967137 175.733789 5.184689 C 176.11354 6.394411 176.477631 7.521919 176.826063 8.563297 L 182.905992 25.663833 C 183.320978 26.814831 183.512811 27.84055 183.477576 28.74882 C 183.442341 29.645346 182.921652 30.506636 181.915508 31.336607 C 180.917194 32.131344 179.950199 32.495435 179.010609 32.428881 C 178.071019 32.362326 177.237133 31.790742 176.508951 30.714129 C 176.16052 30.189525 175.874728 29.531812 175.643745 28.73316 C 175.424508 27.938424 175.18178 27.159347 174.919478 26.399845 C 174.668921 25.636429 174.293085 25.064845 173.803715 24.685094 C 173.737161 24.606795 173.314345 24.536326 172.535269 24.469771 C 171.756192 24.399302 170.855752 24.340578 169.830033 24.289683 C 168.804314 24.238789 167.872554 24.223129 167.023008 24.238789 C 166.177377 24.258364 165.648858 24.348408 165.43745 24.520666 C 164.95591 24.943481 164.615309 25.601194 164.423476 26.501634 C 164.235558 27.39816 164.0633 28.32209 163.902787 29.281254 C 163.750103 30.236504 163.444737 30.988176 162.986686 31.540185 C 162.368123 32.303602 161.542067 32.753822 160.500688 32.898676 C 159.459309 33.035699 158.468825 32.961315 157.529235 32.683353 Z M 167.825574 17.144885 C 168.314944 17.074416 168.792569 16.992202 169.258449 16.890413 C 169.724329 16.780794 170.186294 16.69075 170.644344 16.624196 C 170.397702 15.927333 170.158889 15.234386 169.931822 14.541438 C 169.712584 13.848491 169.497261 13.151628 169.285854 12.45868 C 169.039211 13.222097 168.792569 13.993344 168.549842 14.784165 C 168.311029 15.559327 168.068302 16.346234 167.825574 17.144885 Z M 190.814207 32.94957 C 189.494866 33.117913 188.445657 32.902591 187.666581 32.303602 C 186.887504 31.692869 186.30809 30.874642 185.924425 29.852838 C 185.544674 28.827119 185.298031 27.754421 185.188413 26.626913 C 185.086624 25.499405 185.055304 24.489346 185.086624 23.592821 C 185.266712 20.437365 185.352841 17.301483 185.352841 14.185177 C 185.352841 11.061041 185.42331 7.940819 185.556419 4.816683 C 185.626888 3.606961 185.685612 2.385494 185.736507 1.160112 C 185.795231 -0.0770146 185.967489 -1.204522 186.257196 -2.230241 C 186.550818 -3.252045 187.079337 -4.093761 187.842754 -4.755389 C 188.614001 -5.417017 189.741509 -5.761533 191.233108 -5.796768 C 192.89305 -5.863322 194.674355 -5.777193 196.577025 -5.530551 C 198.491439 -5.283909 200.30015 -4.821944 202.010987 -4.144656 C 203.729653 -3.479113 205.186017 -2.500374 206.376165 -1.212352 C 207.578057 0.0639239 208.302324 1.727781 208.548966 3.775304 C 208.717309 5.231668 208.513732 6.578414 207.938233 7.811625 C 207.370564 9.040922 206.575827 10.133196 205.554023 11.088445 C 204.528304 12.035865 203.428201 12.873666 202.253714 13.601848 C 201.423743 14.126453 200.413684 14.561013 199.231366 14.909444 C 198.052964 15.257875 197.101629 15.739415 196.373447 16.357979 C 195.715734 16.949137 195.261599 17.716469 195.014957 18.656059 C 194.780059 19.583904 194.650866 20.546983 194.635206 21.537468 C 194.619546 22.527952 194.607801 23.420563 194.607801 24.215299 C 194.607801 24.974801 194.599971 25.836092 194.584311 26.791341 C 194.568652 27.738761 194.451203 28.658776 194.239795 29.547472 C 194.036217 30.428337 193.664296 31.180009 193.124032 31.806402 C 192.591598 32.432796 191.820351 32.812546 190.814207 32.94957 Z M 197.681043 10.070556 C 199.485839 9.514632 200.421514 8.250101 200.488068 6.276962 C 200.554622 5.372607 200.351044 4.452592 199.877334 3.520832 C 199.411455 2.581242 198.765486 1.888294 197.935515 1.438074 C 197.074225 0.983939 196.451746 0.909555 196.06808 1.222751 C 195.68833 1.535948 195.453432 2.056637 195.359473 2.78482 C 195.273344 3.513002 195.257684 4.288163 195.308579 5.110305 C 195.359473 5.920701 195.382963 6.617563 195.382963 7.204807 C 195.351643 7.929074 195.324238 8.567212 195.308579 9.107477 C 195.289004 9.639911 195.445602 10.004002 195.778374 10.19975 C 196.10723 10.383753 196.741453 10.344603 197.681043 10.070556 Z M 243.435156 31.59108 C 242.190199 32.597224 241.031372 33.074849 239.954758 33.023954 C 238.878145 32.97306 237.899405 32.569819 237.01071 31.806402 C 236.129844 31.042986 235.327278 30.060331 234.599096 28.846694 C 233.870914 27.629142 233.217116 26.333291 232.641617 24.963056 C 232.073948 23.592821 231.565004 22.300885 231.106953 21.091163 C 230.656733 19.881441 230.261323 18.894871 229.912891 18.135369 C 229.775868 18.237158 229.709313 18.624739 229.709313 19.302027 C 229.709313 19.979315 229.752378 20.777966 229.838507 21.701896 C 229.920721 22.614081 229.99902 23.471457 230.065575 24.266193 C 230.139959 25.06093 230.163449 25.632514 230.128214 25.980945 C 230.06166 26.638658 229.912891 27.37467 229.685824 28.188981 C 229.454841 28.999378 229.118155 29.71973 228.667935 30.346123 C 228.22163 30.972516 227.599151 31.371842 226.804415 31.540185 C 225.763036 31.751593 224.92915 31.614569 224.302757 31.13303 C 223.676363 30.64366 223.222228 29.931137 222.944266 28.999378 C 222.674134 28.059788 222.497961 27.002749 222.423577 25.828262 C 222.353108 24.642029 222.353108 23.451882 222.423577 22.25782 C 222.497961 21.067673 222.580175 19.9754 222.662389 18.984915 C 222.748518 17.994431 222.791583 17.242759 222.791583 16.725985 C 222.822903 14.987743 222.850307 13.257332 222.865967 11.530835 C 222.885542 9.796509 222.873797 8.077843 222.842477 6.378751 C 222.842477 5.54878 222.873797 4.628765 222.944266 3.622621 C 223.01865 2.616476 223.257463 1.688631 223.652874 0.843 C 224.052199 -0.0104603 224.752977 -0.574214 225.763036 -0.844346 C 226.937523 -1.192778 227.873198 -1.177118 228.566146 -0.793452 C 229.263008 -0.413701 229.783698 0.189203 230.128214 1.019174 C 230.476645 1.849145 230.684138 2.820054 230.750692 3.927987 C 230.817247 5.03592 230.801587 6.159513 230.699798 7.290936 C 230.598009 8.418444 230.45707 9.451993 230.280897 10.391583 C 230.112554 11.319428 229.955956 12.028035 229.811102 12.509575 C 230.089064 12.231613 230.621499 11.691349 231.39666 10.896612 C 232.175737 10.101876 233.130987 9.201436 234.25458 8.195291 C 235.382087 7.185232 236.564405 6.198663 237.809361 5.235583 C 239.062148 4.260759 240.283615 3.458192 241.477677 2.823969 C 242.679569 2.181916 243.748352 1.825655 244.676197 1.755186 C 245.615787 1.680801 246.332225 2.056637 246.821594 2.886608 C 247.440158 3.892753 247.569351 4.883237 247.20526 5.858062 C 246.841169 6.828971 246.179541 7.756816 245.224292 8.637682 C 244.276872 9.518547 243.208088 10.344603 242.025771 11.111935 C 240.847369 11.875352 239.731606 12.53698 238.674567 13.092904 C 237.621443 13.644913 236.803217 14.091218 236.208144 14.439649 C 236.97156 14.889869 237.864171 15.633711 238.88989 16.67509 C 239.911694 17.716469 240.890433 18.922276 241.822193 20.292511 C 242.761783 21.654917 243.521285 23.056471 244.104614 24.493261 C 244.699687 25.933965 244.977649 27.276796 244.942415 28.529583 C 244.911095 29.774539 244.406065 30.796343 243.435156 31.59108 Z M 252.118532 32.683353 C 250.771787 32.303602 249.871347 31.653719 249.413296 30.741534 C 248.963076 29.817604 248.790818 28.760565 248.892607 27.566503 C 249.002226 26.372441 249.221464 25.178379 249.55032 23.988231 C 249.883091 22.786339 250.164968 21.697981 250.403781 20.723157 C 251.030174 18.158859 251.723122 15.602392 252.486538 13.053754 C 253.24604 10.509031 254.040777 7.968224 254.870748 5.439161 C 255.563695 3.289849 256.573754 1.547693 257.893095 0.220522 C 259.212436 -1.118393 261.083786 -1.819171 263.50323 -1.885725 C 264.857805 -1.92879 265.965738 -1.611678 266.830944 -0.93439 C 267.70398 -0.257103 268.404757 0.627678 268.937191 1.719951 C 269.481371 2.812224 269.939421 3.967137 270.323086 5.184689 C 270.702837 6.394411 271.066928 7.521919 271.41536 8.563297 L 277.495289 25.663833 C 277.910275 26.814831 278.098193 27.84055 278.066873 28.74882 C 278.031639 29.645346 277.510949 30.506636 276.504805 31.336607 C 275.506491 32.131344 274.535581 32.495435 273.595991 32.428881 C 272.656401 32.362326 271.822515 31.790742 271.094333 30.714129 C 270.749817 30.189525 270.46011 29.531812 270.233042 28.73316 C 270.013805 27.938424 269.771077 27.159347 269.508775 26.399845 C 269.254303 25.636429 268.882382 25.064845 268.393012 24.685094 C 268.322543 24.606795 267.899728 24.536326 267.120651 24.469771 C 266.345489 24.399302 265.441134 24.340578 264.41933 24.289683 C 263.393611 24.238789 262.457936 24.223129 261.612305 24.238789 C 260.766674 24.258364 260.238155 24.348408 260.026747 24.520666 C 259.545207 24.943481 259.204606 25.601194 259.008858 26.501634 C 258.824855 27.39816 258.648682 28.32209 258.488169 29.281254 C 258.335485 30.236504 258.034034 30.988176 257.575984 31.540185 C 256.95742 32.303602 256.127449 32.753822 255.08607 32.898676 C 254.044692 33.035699 253.054207 32.961315 252.118532 32.683353 Z M 262.410957 17.144885 C 262.904241 17.074416 263.381866 16.992202 263.847746 16.890413 C 264.313626 16.780794 264.775591 16.69075 265.229726 16.624196 C 264.986999 15.927333 264.748186 15.234386 264.521119 14.541438 C 264.297966 13.848491 264.082644 13.151628 263.871236 12.45868 C 263.628509 13.222097 263.381866 13.993344 263.135224 14.784165 C 262.900326 15.559327 262.657599 16.346234 262.410957 17.144885 Z M 296.216618 32.162663 C 294.728934 32.722502 293.143376 33.000464 291.456029 33.000464 C 289.780427 33.000464 288.234019 32.687268 286.808974 32.060875 C 285.043328 31.266138 283.786627 30.158205 283.03887 28.73316 C 282.295028 27.312031 281.660804 25.734303 281.1362 23.999976 C 280.545041 22.026838 280.114396 19.955825 279.852094 17.790853 C 279.601537 15.625881 279.644601 13.539209 279.993032 11.530835 C 280.341464 9.518547 281.12054 7.713752 282.330262 6.124279 C 283.547814 4.523061 285.317375 3.309424 287.63503 2.479453 C 290.066219 1.610332 292.395619 1.36369 294.63106 1.743441 C 296.866501 2.123192 298.777 3.090186 300.370388 4.64051 C 301.967691 6.179088 303.00907 8.250101 303.49061 10.845718 C 303.803806 12.615279 303.972149 14.564928 303.987809 16.69858 C 304.003469 18.832232 303.772487 20.938479 303.290947 23.021237 C 302.805492 25.096165 301.991181 26.955769 300.840183 28.607882 C 299.697015 30.248249 298.154522 31.434481 296.216618 32.162663 Z M 289.819577 25.154889 C 290.825721 26.153203 291.753566 26.626913 292.599197 26.576019 C 293.456573 26.525124 294.192585 26.125798 294.807233 25.381956 C 295.433626 24.638114 295.887761 23.761164 296.165723 22.75502 C 296.337982 22.093392 296.498495 21.208611 296.651178 20.100678 C 296.811691 18.992745 296.889991 17.841748 296.889991 16.647685 C 296.889991 15.445793 296.733392 14.35352 296.420196 13.374781 C 296.106999 12.384296 295.58631 11.679604 294.858127 11.264618 C 294.129945 10.849633 293.335209 10.810483 292.473918 11.13934 C 291.608712 11.468196 290.829636 11.965396 290.136688 12.623109 C 289.443741 13.276907 288.989606 13.915045 288.778198 14.541438 C 288.57462 15.203066 288.418022 16.025207 288.308403 17.015691 C 288.206614 17.998346 288.183124 19.02015 288.234019 20.077189 C 288.284913 21.134227 288.429767 22.116882 288.676409 23.021237 C 288.923051 23.917762 289.302802 24.630285 289.819577 25.154889 Z M 289.819577 25.154889 " stroke="#d90429" stroke-width="13.650026" stroke-opacity="1" stroke-miterlimit="4"/><path stroke-linecap="butt" transform="matrix(0.997776, 0, 0, 0.997776, 5.887557, 184.666687)" fill="none" stroke-linejoin="miter" d="M 109.504447 71.746803 C 108.776265 71.464926 108.247745 70.995131 107.918889 70.337418 C 107.590033 69.67579 107.36688 68.947608 107.257261 68.152871 C 107.155472 67.358135 107.088918 66.645612 107.057598 66.019219 C 106.920575 64.081315 106.86185 62.143411 106.87751 60.205507 C 106.89317 58.259773 106.763976 56.314039 106.486014 54.36439 C 105.824387 55.026017 105.064885 55.824669 104.211424 56.764259 C 103.365793 57.696019 102.445778 58.51816 101.455294 59.226767 C 100.476554 59.93929 99.46258 60.260316 98.421201 60.193762 C 97.595145 60.127208 96.855218 59.817926 96.213165 59.265917 C 95.571112 58.706078 94.979953 58.01313 94.435774 57.183159 C 93.90334 56.345358 93.42963 55.503642 93.014644 54.658011 C 92.599659 53.812381 92.200333 53.092028 91.820582 52.50087 C 91.229424 53.82021 90.873162 55.24134 90.755714 56.764259 C 90.638265 58.287177 90.556051 59.833586 90.512986 61.399569 C 90.481667 62.957722 90.325068 64.480641 90.043191 65.968325 C 89.773059 67.459924 89.166241 68.826244 88.226651 70.071201 C 87.400595 71.186964 86.429685 71.746803 85.321752 71.746803 C 84.213819 71.746803 83.258569 71.171304 82.463833 70.020306 C 81.872674 69.123781 81.512498 68.137211 81.387219 67.060598 C 81.265856 65.9879 81.265856 64.887796 81.387219 63.760288 C 81.512498 62.636696 81.626032 61.587487 81.727821 60.612662 C 81.939229 58.529905 82.193701 56.451062 82.491238 54.380049 C 82.784859 52.297292 83.086311 50.230194 83.391678 48.182671 C 83.567851 46.972949 83.759684 45.673183 83.963262 44.287288 C 84.174669 42.897478 84.679699 41.699501 85.474435 40.693357 C 86.378791 39.585424 87.330126 38.955115 88.32844 38.802432 C 89.338499 38.641919 90.352473 38.814177 91.378192 39.323121 C 92.399996 39.820321 93.370906 40.505439 94.283091 41.378474 C 95.207021 42.24368 96.048737 43.15195 96.812153 44.1072 C 97.571655 45.05462 98.198049 45.892421 98.691333 46.620603 C 99.137638 45.892421 99.709222 45.03896 100.40217 44.056305 C 101.099032 43.065821 101.866364 42.102742 102.711995 41.163152 C 103.561541 40.223562 104.461981 39.444485 105.417231 38.825922 C 106.372481 38.199529 107.35905 37.878502 108.376939 37.862842 C 109.398743 37.847182 110.432292 38.285658 111.473671 39.182183 C 112.135299 39.742022 112.612923 40.42714 112.906545 41.237536 C 113.204082 42.051847 113.419405 42.893563 113.556428 43.766599 C 113.689537 44.627889 113.830475 45.45786 113.975329 46.252597 C 114.319845 48.167011 114.613467 50.085341 114.852279 52.00367 C 115.095007 53.925914 115.251605 55.859903 115.322074 57.805638 C 115.353394 58.287177 115.380799 59.01536 115.396459 59.990184 C 115.419948 60.965009 115.396459 62.037707 115.322074 63.216109 C 115.251605 64.390597 115.114582 65.561169 114.903174 66.719997 C 114.699596 67.878824 114.382484 68.912373 113.947924 69.816728 C 113.517279 70.713254 112.945695 71.355307 112.237088 71.746803 C 111.524565 72.126553 110.616295 72.126553 109.504447 71.746803 Z M 120.207942 71.684163 C 118.861196 71.300497 117.960756 70.654529 117.502706 69.738429 C 117.056401 68.818414 116.880228 67.761375 116.982016 66.567313 C 117.091635 65.373251 117.314788 64.179189 117.643644 62.985127 C 117.972501 61.783235 118.258293 60.698791 118.49319 59.723967 C 119.119583 57.15967 119.812531 54.603202 120.575948 52.054564 C 121.33545 49.509842 122.134101 46.969034 122.964072 44.439971 C 123.65702 42.290659 124.663164 40.548503 125.982505 39.221333 C 127.30576 37.882417 129.173195 37.181639 131.596554 37.115085 C 132.95113 37.072021 134.059063 37.389132 134.920353 38.06642 C 135.793389 38.743708 136.494167 39.628488 137.030516 40.716846 C 137.57078 41.80912 138.032745 42.964032 138.412496 44.185499 C 138.792247 45.395221 139.156338 46.518814 139.504769 47.560193 L 145.584699 64.660729 C 145.999684 65.811726 146.191517 66.84136 146.156283 67.745716 C 146.121048 68.646156 145.600359 69.507447 144.594214 70.337418 C 143.5959 71.132154 142.628905 71.496245 141.689316 71.429691 C 140.749726 71.359222 139.91584 70.791553 139.187658 69.714939 C 138.839226 69.190335 138.553434 68.528707 138.322452 67.733971 C 138.103214 66.939234 137.860487 66.160158 137.598185 65.396741 C 137.347627 64.637239 136.971791 64.065655 136.482422 63.685904 C 136.415867 63.607605 135.993052 63.537136 135.213975 63.470582 C 134.434899 63.400112 133.534458 63.341388 132.508739 63.290494 C 131.486935 63.239599 130.55126 63.223939 129.701715 63.239599 C 128.856084 63.255259 128.327564 63.349218 128.116157 63.521476 C 127.634617 63.944291 127.294015 64.602004 127.102183 65.49853 C 126.914265 66.39897 126.742006 67.3229 126.581493 68.282065 C 126.42881 69.237315 126.123443 69.988986 125.665393 70.540996 C 125.04683 71.300497 124.220774 71.754632 123.179395 71.899486 C 122.138016 72.032594 121.147532 71.962125 120.207942 71.684163 Z M 130.504281 56.14178 C 130.993651 56.075226 131.471276 55.993012 131.937156 55.891223 C 132.403036 55.777689 132.865001 55.69156 133.323051 55.621091 C 133.076408 54.928144 132.837596 54.235196 132.610528 53.542248 C 132.391291 52.845386 132.175968 52.152438 131.96456 51.459491 C 131.717918 52.218993 131.471276 52.994154 131.228548 53.781061 C 130.989736 54.560137 130.747008 55.347044 130.504281 56.14178 Z M 147.933673 39.182183 C 147.651796 38.148634 147.702691 37.115085 148.082442 36.073706 C 148.466108 35.032328 149.061181 34.104483 149.875493 33.290171 C 150.693719 32.471945 151.605904 31.923851 152.604218 31.653719 C 153.027034 31.5441 153.563383 31.52061 154.217181 31.579335 C 154.874894 31.630229 155.536522 31.786828 156.198149 32.04913 C 156.855862 32.303602 157.368722 32.652033 157.732813 33.102253 C 158.096904 33.548559 158.171288 34.104483 157.959881 34.76611 C 158.308312 35.807489 158.257417 36.856698 157.807197 37.913737 C 157.360892 38.970775 156.683604 39.89079 155.779249 40.669867 C 154.878809 41.445029 153.903984 41.977463 152.843031 42.255425 C 151.785992 42.533387 150.803338 42.451173 149.898982 42.000953 C 149.002457 41.542903 148.344744 40.603313 147.933673 39.182183 Z M 154.73787 71.277008 C 153.594702 72.071744 152.486769 72.228342 151.410156 71.746803 C 150.337458 71.253518 149.523146 70.439207 148.971137 69.296039 C 148.446533 68.188106 148.105932 66.91183 147.945418 65.47504 C 147.792735 64.034336 147.74184 62.538822 147.792735 60.980668 C 147.851459 59.414685 147.949333 57.887852 148.082442 56.396253 C 148.219465 54.908569 148.340829 53.593143 148.450448 52.449975 C 148.520917 51.721793 148.587471 50.883992 148.654026 49.936572 C 148.724495 48.977408 148.881093 48.029988 149.123821 47.090398 C 149.370463 46.150808 149.750214 45.406966 150.266988 44.858872 C 151.030405 44.06022 151.825142 43.688299 152.655113 43.739194 C 153.492914 43.790088 154.283735 44.103285 155.027577 44.678784 C 155.771419 45.246453 156.335173 45.966805 156.718839 46.839841 C 157.58013 48.707275 158.069499 50.793948 158.190863 53.095943 C 158.316142 55.397938 158.222183 57.711679 157.908986 60.041078 C 157.595789 62.358734 157.251273 64.492386 156.867607 66.43812 C 156.699264 67.303325 156.499601 68.180276 156.272534 69.068971 C 156.053296 69.945922 155.540437 70.685849 154.73787 71.277008 Z M 178.505579 71.95038 C 177.182324 72.118724 176.133115 71.903401 175.357953 71.300497 C 174.578877 70.693679 173.999463 69.875453 173.615797 68.849734 C 173.236046 67.82793 172.989404 66.751316 172.879785 65.627723 C 172.777996 64.500216 172.746676 63.490156 172.777996 62.593631 C 172.958084 59.43426 173.044213 56.298379 173.044213 53.185987 C 173.044213 50.061851 173.114682 46.937714 173.247791 43.817493 C 173.314345 42.607771 173.376985 41.386304 173.427879 40.160922 C 173.486603 38.923796 173.658862 37.796288 173.948568 36.770569 C 174.24219 35.74485 174.77071 34.903134 175.534126 34.245421 C 176.305373 33.583793 177.432881 33.235362 178.92448 33.204042 C 180.580507 33.133573 182.365728 33.223617 184.268397 33.470259 C 186.182812 33.716902 187.991522 34.174952 189.702359 34.85224 C 191.421025 35.521697 192.87739 36.500437 194.067537 37.784543 C 195.269429 39.064734 195.993696 40.728591 196.240339 42.776114 C 196.408682 44.232479 196.205104 45.575309 195.629605 46.812436 C 195.061936 48.037818 194.2672 49.130091 193.245396 50.089256 C 192.219677 51.036675 191.119574 51.874476 189.941171 52.602659 C 189.115115 53.127263 188.105056 53.561823 186.922739 53.910254 C 185.744337 54.254771 184.793002 54.740226 184.06482 55.354874 C 183.403192 55.949948 182.952972 56.713364 182.706329 57.652954 C 182.471432 58.584714 182.342238 59.547794 182.326578 60.534363 C 182.307004 61.524848 182.299174 62.417458 182.299174 63.216109 C 182.299174 63.975611 182.291344 64.836902 182.275684 65.792152 C 182.256109 66.739571 182.142575 67.659587 181.931168 68.548282 C 181.72759 69.425233 181.355669 70.180819 180.815405 70.807213 C 180.28297 71.433606 179.511724 71.813357 178.505579 71.95038 Z M 185.372416 49.071367 C 187.177211 48.515443 188.108971 47.246996 188.17944 45.277772 C 188.245995 44.369502 188.042417 43.453402 187.568707 42.521642 C 187.102827 41.582052 186.456859 40.889105 185.626888 40.438884 C 184.761682 39.980834 184.143119 39.910365 183.759453 40.223562 C 183.379702 40.536758 183.14089 41.057448 183.050846 41.78563 C 182.964716 42.513812 182.949057 43.288974 182.999951 44.1072 C 183.050846 44.921511 183.074335 45.618374 183.074335 46.201702 C 183.039101 46.929885 183.015611 47.564108 182.999951 48.108287 C 182.980376 48.640721 183.136975 49.004812 183.469746 49.20056 C 183.798603 49.384563 184.432826 49.341499 185.372416 49.071367 Z M 204.9198 71.899486 C 204.226853 71.899486 203.483011 71.922976 202.688274 71.97387 C 201.889623 72.024765 201.118376 71.97387 200.362789 71.821187 C 199.618947 71.660673 198.953404 71.304412 198.370076 70.756318 C 197.743682 70.129925 197.360017 69.386083 197.215163 68.520877 C 197.07814 67.647842 197.04682 66.739571 197.113374 65.792152 C 197.191673 64.836902 197.246483 63.975611 197.277802 63.216109 C 197.348272 61.72451 197.414826 60.244656 197.48138 58.772632 C 197.547935 57.288863 197.622319 55.805094 197.696703 54.313495 C 197.767172 52.586999 197.841556 50.848757 197.927685 49.098771 C 198.0099 47.34487 198.068624 45.602714 198.103859 43.868388 C 198.178243 42.893563 198.178243 41.820865 198.103859 40.642462 C 198.037304 39.467975 198.174328 38.407021 198.522759 37.467431 C 198.835956 36.606141 199.415369 35.956258 200.261 35.525612 C 201.118376 35.087137 202.11669 34.80526 203.259858 34.687811 C 204.399111 34.570363 205.585343 34.554703 206.81464 34.636917 C 208.047852 34.723046 209.210594 34.84441 210.302867 35.004923 C 211.395141 35.157606 212.287751 35.2868 212.984613 35.388589 C 213.77935 35.498208 214.538852 35.658721 215.267034 35.870129 C 215.995216 36.073706 216.609864 36.406478 217.107064 36.872358 C 217.616009 37.338238 217.921375 38.039015 218.023164 38.978605 C 218.168018 39.95343 218.011419 40.83821 217.553369 41.632947 C 217.103149 42.427683 216.429776 43.014927 215.533251 43.398593 C 214.840303 43.676555 214.147356 43.766599 213.454408 43.66481 C 212.757546 43.555191 212.064598 43.429912 211.371651 43.296804 C 210.674788 43.15978 209.997501 43.179355 209.339788 43.347698 C 208.924802 43.414252 208.509817 43.692214 208.094831 44.185499 C 207.679846 44.667039 207.444948 45.203388 207.382309 45.798462 C 207.335329 46.38179 207.605461 46.898565 208.19662 47.34487 C 208.64684 47.658067 209.284978 47.799005 210.114949 47.763771 C 210.95275 47.732451 211.810126 47.681556 212.690992 47.611087 C 213.579687 47.544533 214.300039 47.611087 214.848133 47.814665 C 215.756404 48.163096 216.390627 48.613316 216.754718 49.173155 C 217.118809 49.725164 217.334132 50.453347 217.400686 51.357702 C 217.537709 52.4304 217.432006 53.514844 217.083574 54.607117 C 216.735143 55.69939 215.991301 56.419742 214.848133 56.764259 C 214.155186 56.936517 213.411344 56.924772 212.616607 56.740769 C 211.817956 56.545021 211.038879 56.404083 210.279378 56.321869 C 209.515961 56.235739 208.838673 56.470637 208.247514 57.018731 C 207.519332 57.711679 207.213966 58.330242 207.335329 58.874421 C 207.460608 59.406855 207.832529 59.864905 208.451092 60.244656 C 209.077485 60.624407 209.762603 60.921944 210.506445 61.133352 C 211.250287 61.344759 211.86885 61.466123 212.362135 61.501358 C 213.090317 61.536592 213.885054 61.524848 214.746344 61.473953 C 215.61155 61.415229 216.457181 61.434804 217.287152 61.524848 C 218.124953 61.610977 218.85705 61.892854 219.483444 62.378308 C 220.066772 62.793294 220.434778 63.384453 220.587462 64.155699 C 220.747975 64.915201 220.779295 65.686448 220.677506 66.465524 C 220.575717 67.244601 220.419118 67.929719 220.207711 68.520877 C 219.690936 69.801068 218.947094 70.619295 217.97227 70.983386 C 216.997445 71.347477 215.854278 71.5628 214.542767 71.633269 C 212.945464 71.707653 211.344246 71.754632 209.746943 71.770292 C 208.153555 71.789867 206.544508 71.829017 204.9198 71.899486 Z M 223.95824 71.01079 C 223.367082 70.349163 222.948181 69.503532 222.701539 68.469983 C 222.466641 67.428604 222.333533 66.312841 222.310043 65.118779 C 222.290468 63.916887 222.325703 62.754144 222.407917 61.626636 C 222.501876 60.503044 222.564515 59.539964 222.59975 58.745227 C 222.666304 57.805638 222.701539 56.674215 222.701539 55.343129 C 222.701539 54.008128 222.744603 52.594829 222.830733 51.10323 C 222.920777 49.603801 223.10478 48.147436 223.374912 46.722392 C 223.652874 45.301262 224.075689 44.052391 224.643358 42.979692 C 225.218857 41.903079 225.994018 41.124002 226.968843 40.642462 C 228.010222 40.125688 229.039856 39.992579 230.065575 40.235307 C 231.087379 40.474119 232.034798 40.932169 232.896089 41.605542 C 233.761295 42.28283 234.454242 43.054076 234.978847 43.919282 C 235.984991 45.516585 236.846282 47.168697 237.554889 48.867789 C 238.267411 50.562965 239.136532 52.218993 240.170081 53.847615 C 240.134846 53.017644 240.060462 52.074139 239.943013 51.013186 C 239.825565 49.956147 239.762925 48.883449 239.762925 47.791175 C 239.762925 46.698902 239.892119 45.661438 240.146591 44.678784 C 240.408893 43.688299 240.866943 42.846584 241.528571 42.153636 C 242.393777 41.249281 243.309877 40.787316 244.284702 40.767741 C 245.255611 40.752081 246.124732 41.065278 246.888149 41.707331 C 247.64765 42.353299 248.097871 43.261569 248.230979 44.439971 C 248.477622 46.037274 248.692944 47.861645 248.880862 49.909168 C 249.072695 51.948861 249.162739 54.043363 249.147079 56.192675 C 249.127505 58.345902 248.963076 60.424744 248.64988 62.440948 C 248.336683 64.445406 247.815994 66.226712 247.087811 67.784865 C 246.293075 69.487872 245.416124 70.486186 244.460875 70.779808 C 243.513455 71.077345 242.519056 70.897257 241.477677 70.235629 C 240.436298 69.574001 239.414494 68.622666 238.404435 67.37771 C 237.398291 66.124923 236.454786 64.789922 235.57392 63.368793 C 234.693055 61.943748 233.917893 60.628322 233.240605 59.4186 C 232.563318 58.201048 232.050458 57.300608 231.702027 56.713364 C 231.635473 57.061796 231.502364 57.774318 231.310531 58.847016 C 231.122613 59.92363 230.872056 61.152927 230.558859 62.542737 C 230.245663 63.920802 229.881572 65.287122 229.466586 66.641697 C 229.055516 67.996273 228.573976 69.159015 228.033712 70.13384 C 227.501277 71.09692 226.894459 71.703738 226.217171 71.95038 C 225.539883 72.193108 224.788211 71.879911 223.95824 71.01079 Z M 223.95824 71.01079 " stroke="#d90429" stroke-width="13.650026" stroke-opacity="1" stroke-miterlimit="4"/><g fill="#ffffff" fill-opacity="1"><g transform="translate(31.43997, 217.593287)"><g><path d="M 12.875 0 C 11.863281 0 11.070312 -0.238281 10.5 -0.71875 C 9.9375 -1.207031 9.523438 -1.835938 9.265625 -2.609375 C 9.003906 -3.390625 8.851562 -4.210938 8.8125 -5.078125 C 8.78125 -5.941406 8.785156 -6.738281 8.828125 -7.46875 C 8.929688 -10.375 9.082031 -13.257812 9.28125 -16.125 C 9.488281 -19 9.539062 -21.910156 9.4375 -24.859375 C 8.507812 -24.816406 7.5 -24.785156 6.40625 -24.765625 C 5.320312 -24.753906 4.300781 -24.929688 3.34375 -25.296875 C 2.394531 -25.660156 1.675781 -26.34375 1.1875 -27.34375 C 0.707031 -28.34375 0.628906 -29.378906 0.953125 -30.453125 C 1.285156 -31.523438 1.972656 -32.289062 3.015625 -32.75 C 3.804688 -33.125 4.796875 -33.265625 5.984375 -33.171875 C 7.179688 -33.085938 8.394531 -32.953125 9.625 -32.765625 C 10.851562 -32.578125 11.898438 -32.445312 12.765625 -32.375 C 14.253906 -32.3125 15.828125 -32.296875 17.484375 -32.328125 C 19.148438 -32.359375 20.671875 -32.046875 22.046875 -31.390625 C 22.671875 -31.117188 23.195312 -30.6875 23.625 -30.09375 C 24.0625 -29.507812 24.316406 -28.867188 24.390625 -28.171875 C 24.460938 -27.484375 24.253906 -26.828125 23.765625 -26.203125 C 23.316406 -25.617188 22.632812 -25.226562 21.71875 -25.03125 C 20.800781 -24.84375 19.847656 -24.753906 18.859375 -24.765625 C 17.878906 -24.785156 17.039062 -24.796875 16.34375 -24.796875 C 16.445312 -24.109375 16.617188 -23.03125 16.859375 -21.5625 C 17.109375 -20.09375 17.34375 -18.429688 17.5625 -16.578125 C 17.789062 -14.722656 17.921875 -12.835938 17.953125 -10.921875 C 17.984375 -9.003906 17.859375 -7.222656 17.578125 -5.578125 C 17.304688 -3.929688 16.796875 -2.597656 16.046875 -1.578125 C 15.304688 -0.554688 14.25 -0.03125 12.875 0 Z M 12.875 0 "/></g></g></g><g fill="#ffffff" fill-opacity="1"><g transform="translate(55.825627, 217.593287)"><g><path d="M 7.375 -1.09375 C 5.945312 -1.8125 4.851562 -2.796875 4.09375 -4.046875 C 3.332031 -5.296875 2.78125 -6.671875 2.4375 -8.171875 C 2.09375 -9.679688 1.847656 -11.222656 1.703125 -12.796875 C 1.566406 -14.367188 1.414062 -15.828125 1.25 -17.171875 C 1.144531 -18.078125 1.039062 -19.175781 0.9375 -20.46875 C 0.832031 -21.769531 0.804688 -23.117188 0.859375 -24.515625 C 0.910156 -25.921875 1.117188 -27.234375 1.484375 -28.453125 C 1.847656 -29.679688 2.441406 -30.675781 3.265625 -31.4375 C 4.097656 -32.207031 5.238281 -32.59375 6.6875 -32.59375 C 7.832031 -32.59375 8.742188 -32.285156 9.421875 -31.671875 C 10.097656 -31.066406 10.585938 -30.289062 10.890625 -29.34375 C 11.203125 -28.394531 11.398438 -27.375 11.484375 -26.28125 C 11.578125 -25.1875 11.601562 -24.117188 11.5625 -23.078125 C 11.53125 -22.046875 11.5 -21.148438 11.46875 -20.390625 C 11.4375 -18.796875 11.394531 -17.082031 11.34375 -15.25 C 11.289062 -13.414062 11.554688 -11.738281 12.140625 -10.21875 C 12.523438 -9.289062 13.023438 -8.597656 13.640625 -8.140625 C 14.265625 -7.691406 14.90625 -7.5625 15.5625 -7.75 C 16.21875 -7.945312 16.789062 -8.53125 17.28125 -9.5 C 17.9375 -10.8125 18.304688 -12.238281 18.390625 -13.78125 C 18.484375 -15.320312 18.53125 -16.800781 18.53125 -18.21875 C 18.53125 -19.1875 18.453125 -20.222656 18.296875 -21.328125 C 18.140625 -22.429688 18.023438 -23.535156 17.953125 -24.640625 C 17.878906 -25.753906 17.984375 -26.757812 18.265625 -27.65625 C 18.546875 -28.488281 18.976562 -29.1875 19.5625 -29.75 C 20.144531 -30.320312 20.816406 -30.648438 21.578125 -30.734375 C 22.347656 -30.828125 23.113281 -30.546875 23.875 -29.890625 C 24.488281 -29.367188 24.914062 -28.71875 25.15625 -27.9375 C 25.40625 -27.164062 25.546875 -26.351562 25.578125 -25.5 C 25.617188 -24.65625 25.617188 -23.867188 25.578125 -23.140625 C 25.617188 -21.722656 25.640625 -20.140625 25.640625 -18.390625 C 25.640625 -16.648438 25.550781 -14.867188 25.375 -13.046875 C 25.195312 -11.234375 24.859375 -9.519531 24.359375 -7.90625 C 23.859375 -6.300781 23.125 -4.925781 22.15625 -3.78125 C 21.394531 -2.882812 20.398438 -2.132812 19.171875 -1.53125 C 17.941406 -0.925781 16.617188 -0.5 15.203125 -0.25 C 13.785156 -0.0078125 12.382812 0.046875 11 -0.078125 C 9.613281 -0.203125 8.40625 -0.539062 7.375 -1.09375 Z M 7.375 -1.09375 "/></g></g></g><g fill="#ffffff" fill-opacity="1"><g transform="translate(82.28666, 217.593287)"><g><path d="M 28.953125 -0.265625 C 28.222656 -0.535156 27.691406 -1 27.359375 -1.65625 C 27.035156 -2.3125 26.820312 -3.035156 26.71875 -3.828125 C 26.613281 -4.628906 26.546875 -5.34375 26.515625 -5.96875 C 26.378906 -7.90625 26.316406 -9.84375 26.328125 -11.78125 C 26.347656 -13.71875 26.21875 -15.65625 25.9375 -17.59375 C 25.28125 -16.9375 24.53125 -16.140625 23.6875 -15.203125 C 22.84375 -14.265625 21.925781 -13.441406 20.9375 -12.734375 C 19.945312 -12.023438 18.9375 -11.707031 17.90625 -11.78125 C 17.070312 -11.851562 16.332031 -12.164062 15.6875 -12.71875 C 15.050781 -13.269531 14.460938 -13.957031 13.921875 -14.78125 C 13.390625 -15.613281 12.914062 -16.453125 12.5 -17.296875 C 12.09375 -18.148438 11.695312 -18.867188 11.3125 -19.453125 C 10.726562 -18.140625 10.375 -16.722656 10.25 -15.203125 C 10.125 -13.679688 10.046875 -12.140625 10.015625 -10.578125 C 9.984375 -9.023438 9.828125 -7.503906 9.546875 -6.015625 C 9.265625 -4.523438 8.660156 -3.160156 7.734375 -1.921875 C 6.898438 -0.816406 5.929688 -0.265625 4.828125 -0.265625 C 3.722656 -0.265625 2.769531 -0.832031 1.96875 -1.96875 C 1.382812 -2.875 1.03125 -3.859375 0.90625 -4.921875 C 0.78125 -5.992188 0.78125 -7.09375 0.90625 -8.21875 C 1.03125 -9.34375 1.144531 -10.390625 1.25 -11.359375 C 1.457031 -13.441406 1.707031 -15.519531 2 -17.59375 C 2.289062 -19.664062 2.59375 -21.722656 2.90625 -23.765625 C 3.082031 -24.972656 3.269531 -26.269531 3.46875 -27.65625 C 3.675781 -29.039062 4.179688 -30.234375 4.984375 -31.234375 C 5.878906 -32.347656 6.828125 -32.976562 7.828125 -33.125 C 8.835938 -33.28125 9.851562 -33.109375 10.875 -32.609375 C 11.894531 -32.109375 12.863281 -31.425781 13.78125 -30.5625 C 14.695312 -29.695312 15.535156 -28.785156 16.296875 -27.828125 C 17.054688 -26.878906 17.675781 -26.046875 18.15625 -25.328125 C 18.613281 -26.046875 19.1875 -26.898438 19.875 -27.890625 C 20.5625 -28.878906 21.328125 -29.835938 22.171875 -30.765625 C 23.023438 -31.703125 23.925781 -32.484375 24.875 -33.109375 C 25.832031 -33.734375 26.820312 -34.050781 27.84375 -34.0625 C 28.863281 -34.082031 29.890625 -33.644531 30.921875 -32.75 C 31.578125 -32.1875 32.050781 -31.5 32.34375 -30.6875 C 32.644531 -29.875 32.863281 -29.035156 33 -28.171875 C 33.132812 -27.304688 33.273438 -26.476562 33.421875 -25.6875 C 33.765625 -23.78125 34.054688 -21.867188 34.296875 -19.953125 C 34.535156 -18.035156 34.691406 -16.109375 34.765625 -14.171875 C 34.796875 -13.679688 34.820312 -12.953125 34.84375 -11.984375 C 34.863281 -11.015625 34.835938 -9.941406 34.765625 -8.765625 C 34.691406 -7.585938 34.550781 -6.421875 34.34375 -5.265625 C 34.144531 -4.109375 33.828125 -3.078125 33.390625 -2.171875 C 32.960938 -1.273438 32.390625 -0.632812 31.671875 -0.25 C 30.960938 0.125 30.054688 0.117188 28.953125 -0.265625 Z M 28.953125 -0.265625 "/></g></g></g><g fill="#ffffff" fill-opacity="1"><g transform="translate(117.93123, 217.593287)"><g/></g></g><g fill="#ffffff" fill-opacity="1"><g transform="translate(130.90233, 217.593287)"><g><path d="M 4.984375 -4.09375 C 3.390625 -5.71875 2.265625 -7.550781 1.609375 -9.59375 C 0.953125 -11.632812 0.691406 -13.757812 0.828125 -15.96875 C 0.960938 -18.1875 1.425781 -20.332031 2.21875 -22.40625 C 3.019531 -24.488281 4.0625 -26.359375 5.34375 -28.015625 C 5.832031 -28.671875 6.5 -29.429688 7.34375 -30.296875 C 8.1875 -31.160156 9.128906 -31.988281 10.171875 -32.78125 C 11.210938 -33.582031 12.289062 -34.234375 13.40625 -34.734375 C 14.53125 -35.242188 15.613281 -35.488281 16.65625 -35.46875 C 17.695312 -35.445312 18.648438 -35.023438 19.515625 -34.203125 C 20.484375 -33.265625 21.078125 -32.25 21.296875 -31.15625 C 21.523438 -30.070312 21.390625 -29.085938 20.890625 -28.203125 C 20.390625 -27.316406 19.53125 -26.6875 18.3125 -26.3125 C 16.757812 -25.863281 15.316406 -25.132812 13.984375 -24.125 C 12.648438 -23.125 11.566406 -21.914062 10.734375 -20.5 C 9.910156 -19.082031 9.445312 -17.507812 9.34375 -15.78125 C 9.300781 -14.457031 9.546875 -13.164062 10.078125 -11.90625 C 10.617188 -10.644531 11.5 -9.703125 12.71875 -9.078125 C 13.164062 -8.867188 13.734375 -8.703125 14.421875 -8.578125 C 15.117188 -8.460938 15.800781 -8.457031 16.46875 -8.5625 C 17.144531 -8.664062 17.640625 -8.976562 17.953125 -9.5 C 18.265625 -10.019531 18.359375 -10.398438 18.234375 -10.640625 C 18.117188 -10.878906 17.882812 -11.054688 17.53125 -11.171875 C 17.1875 -11.296875 16.816406 -11.421875 16.421875 -11.546875 C 16.023438 -11.671875 15.707031 -11.867188 15.46875 -12.140625 C 14.914062 -12.734375 14.613281 -13.585938 14.5625 -14.703125 C 14.507812 -15.828125 14.65625 -16.753906 15 -17.484375 C 15.445312 -18.421875 16.101562 -19.0625 16.96875 -19.40625 C 17.832031 -19.75 18.773438 -19.867188 19.796875 -19.765625 C 20.816406 -19.660156 21.816406 -19.375 22.796875 -18.90625 C 23.785156 -18.445312 24.644531 -17.863281 25.375 -17.15625 C 26.101562 -16.445312 26.585938 -15.675781 26.828125 -14.84375 C 27.453125 -12.59375 27.5625 -10.566406 27.15625 -8.765625 C 26.757812 -6.972656 25.984375 -5.425781 24.828125 -4.125 C 23.671875 -2.820312 22.269531 -1.816406 20.625 -1.109375 C 18.976562 -0.398438 17.226562 -0.0195312 15.375 0.03125 C 13.53125 0.0820312 11.707031 -0.226562 9.90625 -0.90625 C 8.113281 -1.582031 6.472656 -2.644531 4.984375 -4.09375 Z M 4.984375 -4.09375 "/></g></g></g><g fill="#ffffff" fill-opacity="1"><g transform="translate(159.075549, 217.593287)"><g><path d="M 4 -0.3125 C 2.644531 -0.6875 1.742188 -1.332031 1.296875 -2.25 C 0.847656 -3.164062 0.675781 -4.222656 0.78125 -5.421875 C 0.882812 -6.617188 1.097656 -7.8125 1.421875 -9 C 1.753906 -10.195312 2.039062 -11.28125 2.28125 -12.25 C 2.90625 -14.8125 3.597656 -17.363281 4.359375 -19.90625 C 5.117188 -22.445312 5.914062 -24.976562 6.75 -27.5 C 7.4375 -29.644531 8.4375 -31.382812 9.75 -32.71875 C 11.070312 -34.050781 12.941406 -34.75 15.359375 -34.8125 C 16.710938 -34.851562 17.820312 -34.535156 18.6875 -33.859375 C 19.550781 -33.179688 20.25 -32.296875 20.78125 -31.203125 C 21.320312 -30.117188 21.78125 -28.96875 22.15625 -27.75 C 22.539062 -26.539062 22.90625 -25.421875 23.25 -24.390625 L 29.3125 -7.3125 C 29.726562 -6.175781 29.921875 -5.15625 29.890625 -4.25 C 29.859375 -3.351562 29.335938 -2.488281 28.328125 -1.65625 C 27.328125 -0.863281 26.359375 -0.5 25.421875 -0.5625 C 24.492188 -0.632812 23.664062 -1.207031 22.9375 -2.28125 C 22.59375 -2.800781 22.304688 -3.457031 22.078125 -4.25 C 21.847656 -5.050781 21.601562 -5.832031 21.34375 -6.59375 C 21.09375 -7.351562 20.722656 -7.921875 20.234375 -8.296875 C 20.171875 -8.367188 19.75 -8.4375 18.96875 -8.5 C 18.1875 -8.570312 17.285156 -8.632812 16.265625 -8.6875 C 15.242188 -8.738281 14.304688 -8.753906 13.453125 -8.734375 C 12.609375 -8.722656 12.085938 -8.628906 11.890625 -8.453125 C 11.398438 -8.035156 11.054688 -7.378906 10.859375 -6.484375 C 10.671875 -5.585938 10.5 -4.660156 10.34375 -3.703125 C 10.195312 -2.753906 9.894531 -2.003906 9.4375 -1.453125 C 8.820312 -0.691406 7.992188 -0.238281 6.953125 -0.09375 C 5.910156 0.0390625 4.925781 -0.03125 4 -0.3125 Z M 14.265625 -15.828125 C 14.753906 -15.898438 15.226562 -15.984375 15.6875 -16.078125 C 16.15625 -16.179688 16.617188 -16.269531 17.078125 -16.34375 C 16.828125 -17.039062 16.585938 -17.734375 16.359375 -18.421875 C 16.140625 -19.109375 15.925781 -19.800781 15.71875 -20.5 C 15.476562 -19.738281 15.238281 -18.96875 15 -18.1875 C 14.757812 -17.40625 14.515625 -16.617188 14.265625 -15.828125 Z M 14.265625 -15.828125 "/></g></g></g><g fill="#ffffff" fill-opacity="1"><g transform="translate(189.791104, 217.593287)"><g><path d="M 6.484375 -0.046875 C 5.171875 0.117188 4.125 -0.0976562 3.34375 -0.703125 C 2.5625 -1.304688 1.976562 -2.117188 1.59375 -3.140625 C 1.21875 -4.160156 0.976562 -5.234375 0.875 -6.359375 C 0.769531 -7.484375 0.738281 -8.492188 0.78125 -9.390625 C 0.945312 -12.535156 1.03125 -15.664062 1.03125 -18.78125 C 1.03125 -21.894531 1.101562 -25.007812 1.25 -28.125 C 1.3125 -29.332031 1.367188 -30.550781 1.421875 -31.78125 C 1.472656 -33.007812 1.644531 -34.132812 1.9375 -35.15625 C 2.238281 -36.175781 2.769531 -37.015625 3.53125 -37.671875 C 4.289062 -38.328125 5.414062 -38.671875 6.90625 -38.703125 C 8.5625 -38.773438 10.335938 -38.691406 12.234375 -38.453125 C 14.140625 -38.210938 15.945312 -37.753906 17.65625 -37.078125 C 19.375 -36.398438 20.828125 -35.421875 22.015625 -34.140625 C 23.210938 -32.859375 23.9375 -31.195312 24.1875 -29.15625 C 24.351562 -27.707031 24.148438 -26.367188 23.578125 -25.140625 C 23.015625 -23.910156 22.222656 -22.816406 21.203125 -21.859375 C 20.179688 -20.910156 19.082031 -20.078125 17.90625 -19.359375 C 17.070312 -18.835938 16.066406 -18.398438 14.890625 -18.046875 C 13.710938 -17.703125 12.757812 -17.222656 12.03125 -16.609375 C 11.375 -16.015625 10.925781 -15.25 10.6875 -14.3125 C 10.445312 -13.382812 10.316406 -12.425781 10.296875 -11.4375 C 10.285156 -10.457031 10.28125 -9.566406 10.28125 -8.765625 C 10.28125 -8.003906 10.269531 -7.148438 10.25 -6.203125 C 10.226562 -5.253906 10.113281 -4.335938 9.90625 -3.453125 C 9.695312 -2.566406 9.320312 -1.8125 8.78125 -1.1875 C 8.25 -0.570312 7.484375 -0.191406 6.484375 -0.046875 Z M 13.328125 -22.890625 C 15.128906 -23.441406 16.066406 -24.703125 16.140625 -26.671875 C 16.203125 -27.566406 16 -28.484375 15.53125 -29.421875 C 15.070312 -30.359375 14.425781 -31.050781 13.59375 -31.5 C 12.726562 -31.945312 12.101562 -32.015625 11.71875 -31.703125 C 11.34375 -31.390625 11.109375 -30.867188 11.015625 -30.140625 C 10.929688 -29.421875 10.914062 -28.65625 10.96875 -27.84375 C 11.019531 -27.03125 11.046875 -26.328125 11.046875 -25.734375 C 11.015625 -25.003906 10.988281 -24.375 10.96875 -23.84375 C 10.957031 -23.3125 11.113281 -22.945312 11.4375 -22.75 C 11.769531 -22.5625 12.398438 -22.609375 13.328125 -22.890625 Z M 13.328125 -22.890625 "/></g></g></g><g fill="#ffffff" fill-opacity="1"><g transform="translate(214.021117, 217.593287)"><g/></g></g><g fill="#ffffff" fill-opacity="1"><g transform="translate(226.992217, 217.593287)"><g><path d="M 21.796875 -1.40625 C 20.546875 -0.394531 19.382812 0.0820312 18.3125 0.03125 C 17.238281 -0.0195312 16.257812 -0.425781 15.375 -1.1875 C 14.5 -1.945312 13.695312 -2.929688 12.96875 -4.140625 C 12.25 -5.359375 11.601562 -6.648438 11.03125 -8.015625 C 10.457031 -9.378906 9.945312 -10.664062 9.5 -11.875 C 9.050781 -13.09375 8.648438 -14.082031 8.296875 -14.84375 C 8.160156 -14.738281 8.09375 -14.347656 8.09375 -13.671875 C 8.09375 -12.992188 8.132812 -12.195312 8.21875 -11.28125 C 8.3125 -10.363281 8.390625 -9.507812 8.453125 -8.71875 C 8.523438 -7.925781 8.546875 -7.351562 8.515625 -7 C 8.441406 -6.34375 8.289062 -5.609375 8.0625 -4.796875 C 7.84375 -3.984375 7.503906 -3.265625 7.046875 -2.640625 C 6.597656 -2.023438 5.976562 -1.628906 5.1875 -1.453125 C 4.144531 -1.242188 3.3125 -1.378906 2.6875 -1.859375 C 2.070312 -2.347656 1.625 -3.054688 1.34375 -3.984375 C 1.070312 -4.921875 0.898438 -5.976562 0.828125 -7.15625 C 0.753906 -8.332031 0.753906 -9.515625 0.828125 -10.703125 C 0.898438 -11.898438 0.976562 -12.992188 1.0625 -13.984375 C 1.144531 -14.972656 1.1875 -15.722656 1.1875 -16.234375 C 1.226562 -17.972656 1.253906 -19.707031 1.265625 -21.4375 C 1.285156 -23.164062 1.28125 -24.875 1.25 -26.5625 C 1.25 -27.394531 1.28125 -28.3125 1.34375 -29.3125 C 1.414062 -30.320312 1.648438 -31.25 2.046875 -32.09375 C 2.441406 -32.9375 3.144531 -33.5 4.15625 -33.78125 C 5.332031 -34.125 6.265625 -34.101562 6.953125 -33.71875 C 7.640625 -33.34375 8.15625 -32.738281 8.5 -31.90625 C 8.851562 -31.082031 9.0625 -30.113281 9.125 -29 C 9.195312 -27.894531 9.179688 -26.78125 9.078125 -25.65625 C 8.972656 -24.53125 8.832031 -23.5 8.65625 -22.5625 C 8.488281 -21.632812 8.335938 -20.925781 8.203125 -20.4375 C 8.472656 -20.71875 9 -21.253906 9.78125 -22.046875 C 10.5625 -22.847656 11.515625 -23.75 12.640625 -24.75 C 13.765625 -25.75 14.945312 -26.734375 16.1875 -27.703125 C 17.4375 -28.671875 18.65625 -29.472656 19.84375 -30.109375 C 21.039062 -30.753906 22.101562 -31.113281 23.03125 -31.1875 C 23.96875 -31.257812 24.679688 -30.878906 25.171875 -30.046875 C 25.785156 -29.046875 25.910156 -28.0625 25.546875 -27.09375 C 25.191406 -26.125 24.535156 -25.195312 23.578125 -24.3125 C 22.628906 -23.425781 21.566406 -22.601562 20.390625 -21.84375 C 19.210938 -21.082031 18.097656 -20.425781 17.046875 -19.875 C 15.992188 -19.320312 15.171875 -18.875 14.578125 -18.53125 C 15.335938 -18.070312 16.226562 -17.320312 17.25 -16.28125 C 18.269531 -15.25 19.25 -14.050781 20.1875 -12.6875 C 21.125 -11.320312 21.882812 -9.921875 22.46875 -8.484375 C 23.050781 -7.046875 23.328125 -5.703125 23.296875 -4.453125 C 23.265625 -3.210938 22.765625 -2.195312 21.796875 -1.40625 Z M 21.796875 -1.40625 "/></g></g></g><g fill="#ffffff" fill-opacity="1"><g transform="translate(253.45325, 217.593287)"><g><path d="M 4 -0.3125 C 2.644531 -0.6875 1.742188 -1.332031 1.296875 -2.25 C 0.847656 -3.164062 0.675781 -4.222656 0.78125 -5.421875 C 0.882812 -6.617188 1.097656 -7.8125 1.421875 -9 C 1.753906 -10.195312 2.039062 -11.28125 2.28125 -12.25 C 2.90625 -14.8125 3.597656 -17.363281 4.359375 -19.90625 C 5.117188 -22.445312 5.914062 -24.976562 6.75 -27.5 C 7.4375 -29.644531 8.4375 -31.382812 9.75 -32.71875 C 11.070312 -34.050781 12.941406 -34.75 15.359375 -34.8125 C 16.710938 -34.851562 17.820312 -34.535156 18.6875 -33.859375 C 19.550781 -33.179688 20.25 -32.296875 20.78125 -31.203125 C 21.320312 -30.117188 21.78125 -28.96875 22.15625 -27.75 C 22.539062 -26.539062 22.90625 -25.421875 23.25 -24.390625 L 29.3125 -7.3125 C 29.726562 -6.175781 29.921875 -5.15625 29.890625 -4.25 C 29.859375 -3.351562 29.335938 -2.488281 28.328125 -1.65625 C 27.328125 -0.863281 26.359375 -0.5 25.421875 -0.5625 C 24.492188 -0.632812 23.664062 -1.207031 22.9375 -2.28125 C 22.59375 -2.800781 22.304688 -3.457031 22.078125 -4.25 C 21.847656 -5.050781 21.601562 -5.832031 21.34375 -6.59375 C 21.09375 -7.351562 20.722656 -7.921875 20.234375 -8.296875 C 20.171875 -8.367188 19.75 -8.4375 18.96875 -8.5 C 18.1875 -8.570312 17.285156 -8.632812 16.265625 -8.6875 C 15.242188 -8.738281 14.304688 -8.753906 13.453125 -8.734375 C 12.609375 -8.722656 12.085938 -8.628906 11.890625 -8.453125 C 11.398438 -8.035156 11.054688 -7.378906 10.859375 -6.484375 C 10.671875 -5.585938 10.5 -4.660156 10.34375 -3.703125 C 10.195312 -2.753906 9.894531 -2.003906 9.4375 -1.453125 C 8.820312 -0.691406 7.992188 -0.238281 6.953125 -0.09375 C 5.910156 0.0390625 4.925781 -0.03125 4 -0.3125 Z M 14.265625 -15.828125 C 14.753906 -15.898438 15.226562 -15.984375 15.6875 -16.078125 C 16.15625 -16.179688 16.617188 -16.269531 17.078125 -16.34375 C 16.828125 -17.039062 16.585938 -17.734375 16.359375 -18.421875 C 16.140625 -19.109375 15.925781 -19.800781 15.71875 -20.5 C 15.476562 -19.738281 15.238281 -18.96875 15 -18.1875 C 14.757812 -17.40625 14.515625 -16.617188 14.265625 -15.828125 Z M 14.265625 -15.828125 "/></g></g></g><g fill="#ffffff" fill-opacity="1"><g transform="translate(284.168805, 217.593287)"><g><path d="M 17.28125 -0.828125 C 15.789062 -0.273438 14.207031 0 12.53125 0 C 10.851562 0 9.304688 -0.3125 7.890625 -0.9375 C 6.117188 -1.726562 4.863281 -2.832031 4.125 -4.25 C 3.382812 -5.664062 2.753906 -7.242188 2.234375 -8.984375 C 1.640625 -10.953125 1.210938 -13.015625 0.953125 -15.171875 C 0.703125 -17.335938 0.75 -19.421875 1.09375 -21.421875 C 1.4375 -23.429688 2.210938 -25.234375 3.421875 -26.828125 C 4.628906 -28.421875 6.394531 -29.628906 8.71875 -30.453125 C 11.132812 -31.316406 13.457031 -31.554688 15.6875 -31.171875 C 17.925781 -30.796875 19.835938 -29.835938 21.421875 -28.296875 C 23.015625 -26.765625 24.054688 -24.703125 24.546875 -22.109375 C 24.859375 -20.335938 25.019531 -18.390625 25.03125 -16.265625 C 25.050781 -14.140625 24.816406 -12.035156 24.328125 -9.953125 C 23.847656 -7.878906 23.035156 -6.019531 21.890625 -4.375 C 20.753906 -2.738281 19.21875 -1.554688 17.28125 -0.828125 Z M 10.890625 -7.828125 C 11.898438 -6.828125 12.828125 -6.351562 13.671875 -6.40625 C 14.515625 -6.457031 15.25 -6.851562 15.875 -7.59375 C 16.5 -8.34375 16.953125 -9.21875 17.234375 -10.21875 C 17.398438 -10.875 17.5625 -11.753906 17.71875 -12.859375 C 17.875 -13.972656 17.953125 -15.125 17.953125 -16.3125 C 17.953125 -17.507812 17.796875 -18.597656 17.484375 -19.578125 C 17.171875 -20.566406 16.65625 -21.269531 15.9375 -21.6875 C 15.207031 -22.101562 14.410156 -22.144531 13.546875 -21.8125 C 12.679688 -21.488281 11.898438 -21 11.203125 -20.34375 C 10.515625 -19.6875 10.066406 -19.046875 9.859375 -18.421875 C 9.648438 -17.765625 9.492188 -16.941406 9.390625 -15.953125 C 9.285156 -14.972656 9.257812 -13.953125 9.3125 -12.890625 C 9.363281 -11.835938 9.507812 -10.859375 9.75 -9.953125 C 10 -9.054688 10.378906 -8.347656 10.890625 -7.828125 Z M 10.890625 -7.828125 "/></g></g></g><g fill="#ffffff" fill-opacity="1"><g transform="translate(86.192914, 256.506541)"><g><path d="M 28.953125 -0.265625 C 28.222656 -0.535156 27.691406 -1 27.359375 -1.65625 C 27.035156 -2.3125 26.820312 -3.035156 26.71875 -3.828125 C 26.613281 -4.628906 26.546875 -5.34375 26.515625 -5.96875 C 26.378906 -7.90625 26.316406 -9.84375 26.328125 -11.78125 C 26.347656 -13.71875 26.21875 -15.65625 25.9375 -17.59375 C 25.28125 -16.9375 24.53125 -16.140625 23.6875 -15.203125 C 22.84375 -14.265625 21.925781 -13.441406 20.9375 -12.734375 C 19.945312 -12.023438 18.9375 -11.707031 17.90625 -11.78125 C 17.070312 -11.851562 16.332031 -12.164062 15.6875 -12.71875 C 15.050781 -13.269531 14.460938 -13.957031 13.921875 -14.78125 C 13.390625 -15.613281 12.914062 -16.453125 12.5 -17.296875 C 12.09375 -18.148438 11.695312 -18.867188 11.3125 -19.453125 C 10.726562 -18.140625 10.375 -16.722656 10.25 -15.203125 C 10.125 -13.679688 10.046875 -12.140625 10.015625 -10.578125 C 9.984375 -9.023438 9.828125 -7.503906 9.546875 -6.015625 C 9.265625 -4.523438 8.660156 -3.160156 7.734375 -1.921875 C 6.898438 -0.816406 5.929688 -0.265625 4.828125 -0.265625 C 3.722656 -0.265625 2.769531 -0.832031 1.96875 -1.96875 C 1.382812 -2.875 1.03125 -3.859375 0.90625 -4.921875 C 0.78125 -5.992188 0.78125 -7.09375 0.90625 -8.21875 C 1.03125 -9.34375 1.144531 -10.390625 1.25 -11.359375 C 1.457031 -13.441406 1.707031 -15.519531 2 -17.59375 C 2.289062 -19.664062 2.59375 -21.722656 2.90625 -23.765625 C 3.082031 -24.972656 3.269531 -26.269531 3.46875 -27.65625 C 3.675781 -29.039062 4.179688 -30.234375 4.984375 -31.234375 C 5.878906 -32.347656 6.828125 -32.976562 7.828125 -33.125 C 8.835938 -33.28125 9.851562 -33.109375 10.875 -32.609375 C 11.894531 -32.109375 12.863281 -31.425781 13.78125 -30.5625 C 14.695312 -29.695312 15.535156 -28.785156 16.296875 -27.828125 C 17.054688 -26.878906 17.675781 -26.046875 18.15625 -25.328125 C 18.613281 -26.046875 19.1875 -26.898438 19.875 -27.890625 C 20.5625 -28.878906 21.328125 -29.835938 22.171875 -30.765625 C 23.023438 -31.703125 23.925781 -32.484375 24.875 -33.109375 C 25.832031 -33.734375 26.820312 -34.050781 27.84375 -34.0625 C 28.863281 -34.082031 29.890625 -33.644531 30.921875 -32.75 C 31.578125 -32.1875 32.050781 -31.5 32.34375 -30.6875 C 32.644531 -29.875 32.863281 -29.035156 33 -28.171875 C 33.132812 -27.304688 33.273438 -26.476562 33.421875 -25.6875 C 33.765625 -23.78125 34.054688 -21.867188 34.296875 -19.953125 C 34.535156 -18.035156 34.691406 -16.109375 34.765625 -14.171875 C 34.796875 -13.679688 34.820312 -12.953125 34.84375 -11.984375 C 34.863281 -11.015625 34.835938 -9.941406 34.765625 -8.765625 C 34.691406 -7.585938 34.550781 -6.421875 34.34375 -5.265625 C 34.144531 -4.109375 33.828125 -3.078125 33.390625 -2.171875 C 32.960938 -1.273438 32.390625 -0.632812 31.671875 -0.25 C 30.960938 0.125 30.054688 0.117188 28.953125 -0.265625 Z M 28.953125 -0.265625 "/></g></g></g><g fill="#ffffff" fill-opacity="1"><g transform="translate(121.837484, 256.506541)"><g><path d="M 4 -0.3125 C 2.644531 -0.6875 1.742188 -1.332031 1.296875 -2.25 C 0.847656 -3.164062 0.675781 -4.222656 0.78125 -5.421875 C 0.882812 -6.617188 1.097656 -7.8125 1.421875 -9 C 1.753906 -10.195312 2.039062 -11.28125 2.28125 -12.25 C 2.90625 -14.8125 3.597656 -17.363281 4.359375 -19.90625 C 5.117188 -22.445312 5.914062 -24.976562 6.75 -27.5 C 7.4375 -29.644531 8.4375 -31.382812 9.75 -32.71875 C 11.070312 -34.050781 12.941406 -34.75 15.359375 -34.8125 C 16.710938 -34.851562 17.820312 -34.535156 18.6875 -33.859375 C 19.550781 -33.179688 20.25 -32.296875 20.78125 -31.203125 C 21.320312 -30.117188 21.78125 -28.96875 22.15625 -27.75 C 22.539062 -26.539062 22.90625 -25.421875 23.25 -24.390625 L 29.3125 -7.3125 C 29.726562 -6.175781 29.921875 -5.15625 29.890625 -4.25 C 29.859375 -3.351562 29.335938 -2.488281 28.328125 -1.65625 C 27.328125 -0.863281 26.359375 -0.5 25.421875 -0.5625 C 24.492188 -0.632812 23.664062 -1.207031 22.9375 -2.28125 C 22.59375 -2.800781 22.304688 -3.457031 22.078125 -4.25 C 21.847656 -5.050781 21.601562 -5.832031 21.34375 -6.59375 C 21.09375 -7.351562 20.722656 -7.921875 20.234375 -8.296875 C 20.171875 -8.367188 19.75 -8.4375 18.96875 -8.5 C 18.1875 -8.570312 17.285156 -8.632812 16.265625 -8.6875 C 15.242188 -8.738281 14.304688 -8.753906 13.453125 -8.734375 C 12.609375 -8.722656 12.085938 -8.628906 11.890625 -8.453125 C 11.398438 -8.035156 11.054688 -7.378906 10.859375 -6.484375 C 10.671875 -5.585938 10.5 -4.660156 10.34375 -3.703125 C 10.195312 -2.753906 9.894531 -2.003906 9.4375 -1.453125 C 8.820312 -0.691406 7.992188 -0.238281 6.953125 -0.09375 C 5.910156 0.0390625 4.925781 -0.03125 4 -0.3125 Z M 14.265625 -15.828125 C 14.753906 -15.898438 15.226562 -15.984375 15.6875 -16.078125 C 16.15625 -16.179688 16.617188 -16.269531 17.078125 -16.34375 C 16.828125 -17.039062 16.585938 -17.734375 16.359375 -18.421875 C 16.140625 -19.109375 15.925781 -19.800781 15.71875 -20.5 C 15.476562 -19.738281 15.238281 -18.96875 15 -18.1875 C 14.757812 -17.40625 14.515625 -16.617188 14.265625 -15.828125 Z M 14.265625 -15.828125 "/></g></g></g><g fill="#ffffff" fill-opacity="1"><g transform="translate(152.55304, 256.506541)"><g><path d="M 0.9375 -32.75 C 0.65625 -33.78125 0.703125 -34.8125 1.078125 -35.84375 C 1.460938 -36.882812 2.0625 -37.8125 2.875 -38.625 C 3.6875 -39.445312 4.597656 -39.992188 5.609375 -40.265625 C 6.023438 -40.367188 6.5625 -40.394531 7.21875 -40.34375 C 7.875 -40.289062 8.53125 -40.132812 9.1875 -39.875 C 9.84375 -39.613281 10.351562 -39.257812 10.71875 -38.8125 C 11.082031 -38.363281 11.160156 -37.8125 10.953125 -37.15625 C 11.296875 -36.113281 11.242188 -35.066406 10.796875 -34.015625 C 10.347656 -32.960938 9.671875 -32.046875 8.765625 -31.265625 C 7.867188 -30.484375 6.890625 -29.953125 5.828125 -29.671875 C 4.773438 -29.398438 3.800781 -29.488281 2.90625 -29.9375 C 2.007812 -30.382812 1.351562 -31.320312 0.9375 -32.75 Z M 7.734375 -0.71875 C 6.585938 0.0703125 5.476562 0.226562 4.40625 -0.25 C 3.332031 -0.738281 2.519531 -1.554688 1.96875 -2.703125 C 1.445312 -3.804688 1.109375 -5.078125 0.953125 -6.515625 C 0.796875 -7.953125 0.742188 -9.445312 0.796875 -11 C 0.847656 -12.550781 0.941406 -14.070312 1.078125 -15.5625 C 1.222656 -17.050781 1.347656 -18.367188 1.453125 -19.515625 C 1.523438 -20.234375 1.59375 -21.066406 1.65625 -22.015625 C 1.726562 -22.972656 1.882812 -23.914062 2.125 -24.84375 C 2.363281 -25.78125 2.742188 -26.53125 3.265625 -27.09375 C 4.023438 -27.882812 4.820312 -28.253906 5.65625 -28.203125 C 6.488281 -28.148438 7.273438 -27.835938 8.015625 -27.265625 C 8.753906 -26.691406 9.316406 -25.972656 9.703125 -25.109375 C 10.566406 -23.242188 11.054688 -21.160156 11.171875 -18.859375 C 11.296875 -16.554688 11.203125 -14.242188 10.890625 -11.921875 C 10.585938 -9.609375 10.242188 -7.484375 9.859375 -5.546875 C 9.679688 -4.679688 9.476562 -3.804688 9.25 -2.921875 C 9.03125 -2.046875 8.523438 -1.3125 7.734375 -0.71875 Z M 7.734375 -0.71875 "/></g></g></g><g fill="#ffffff" fill-opacity="1"><g transform="translate(164.538331, 256.506541)"><g/></g></g><g fill="#ffffff" fill-opacity="1"><g transform="translate(177.50943, 256.506541)"><g><path d="M 6.484375 -0.046875 C 5.171875 0.117188 4.125 -0.0976562 3.34375 -0.703125 C 2.5625 -1.304688 1.976562 -2.117188 1.59375 -3.140625 C 1.21875 -4.160156 0.976562 -5.234375 0.875 -6.359375 C 0.769531 -7.484375 0.738281 -8.492188 0.78125 -9.390625 C 0.945312 -12.535156 1.03125 -15.664062 1.03125 -18.78125 C 1.03125 -21.894531 1.101562 -25.007812 1.25 -28.125 C 1.3125 -29.332031 1.367188 -30.550781 1.421875 -31.78125 C 1.472656 -33.007812 1.644531 -34.132812 1.9375 -35.15625 C 2.238281 -36.175781 2.769531 -37.015625 3.53125 -37.671875 C 4.289062 -38.328125 5.414062 -38.671875 6.90625 -38.703125 C 8.5625 -38.773438 10.335938 -38.691406 12.234375 -38.453125 C 14.140625 -38.210938 15.945312 -37.753906 17.65625 -37.078125 C 19.375 -36.398438 20.828125 -35.421875 22.015625 -34.140625 C 23.210938 -32.859375 23.9375 -31.195312 24.1875 -29.15625 C 24.351562 -27.707031 24.148438 -26.367188 23.578125 -25.140625 C 23.015625 -23.910156 22.222656 -22.816406 21.203125 -21.859375 C 20.179688 -20.910156 19.082031 -20.078125 17.90625 -19.359375 C 17.070312 -18.835938 16.066406 -18.398438 14.890625 -18.046875 C 13.710938 -17.703125 12.757812 -17.222656 12.03125 -16.609375 C 11.375 -16.015625 10.925781 -15.25 10.6875 -14.3125 C 10.445312 -13.382812 10.316406 -12.425781 10.296875 -11.4375 C 10.285156 -10.457031 10.28125 -9.566406 10.28125 -8.765625 C 10.28125 -8.003906 10.269531 -7.148438 10.25 -6.203125 C 10.226562 -5.253906 10.113281 -4.335938 9.90625 -3.453125 C 9.695312 -2.566406 9.320312 -1.8125 8.78125 -1.1875 C 8.25 -0.570312 7.484375 -0.191406 6.484375 -0.046875 Z M 13.328125 -22.890625 C 15.128906 -23.441406 16.066406 -24.703125 16.140625 -26.671875 C 16.203125 -27.566406 16 -28.484375 15.53125 -29.421875 C 15.070312 -30.359375 14.425781 -31.050781 13.59375 -31.5 C 12.726562 -31.945312 12.101562 -32.015625 11.71875 -31.703125 C 11.34375 -31.390625 11.109375 -30.867188 11.015625 -30.140625 C 10.929688 -29.421875 10.914062 -28.65625 10.96875 -27.84375 C 11.019531 -27.03125 11.046875 -26.328125 11.046875 -25.734375 C 11.015625 -25.003906 10.988281 -24.375 10.96875 -23.84375 C 10.957031 -23.3125 11.113281 -22.945312 11.4375 -22.75 C 11.769531 -22.5625 12.398438 -22.609375 13.328125 -22.890625 Z M 13.328125 -22.890625 "/></g></g></g><g fill="#ffffff" fill-opacity="1"><g transform="translate(201.739444, 256.506541)"><g><path d="M 8.609375 -0.109375 C 7.921875 -0.109375 7.175781 -0.0820312 6.375 -0.03125 C 5.582031 0.0195312 4.8125 -0.03125 4.0625 -0.1875 C 3.320312 -0.34375 2.660156 -0.695312 2.078125 -1.25 C 1.453125 -1.863281 1.066406 -2.601562 0.921875 -3.46875 C 0.785156 -4.34375 0.753906 -5.253906 0.828125 -6.203125 C 0.898438 -7.148438 0.953125 -8.003906 0.984375 -8.765625 C 1.054688 -10.253906 1.125 -11.734375 1.1875 -13.203125 C 1.257812 -14.671875 1.332031 -16.148438 1.40625 -17.640625 C 1.46875 -19.367188 1.539062 -21.109375 1.625 -22.859375 C 1.71875 -24.609375 1.78125 -26.347656 1.8125 -28.078125 C 1.882812 -29.046875 1.882812 -30.113281 1.8125 -31.28125 C 1.75 -32.457031 1.890625 -33.515625 2.234375 -34.453125 C 2.546875 -35.316406 3.125 -35.960938 3.96875 -36.390625 C 4.8125 -36.828125 5.804688 -37.101562 6.953125 -37.21875 C 8.097656 -37.34375 9.28125 -37.363281 10.5 -37.28125 C 11.726562 -37.195312 12.890625 -37.078125 13.984375 -36.921875 C 15.078125 -36.765625 15.96875 -36.632812 16.65625 -36.53125 C 17.445312 -36.425781 18.207031 -36.269531 18.9375 -36.0625 C 19.664062 -35.851562 20.28125 -35.515625 20.78125 -35.046875 C 21.28125 -34.585938 21.582031 -33.890625 21.6875 -32.953125 C 21.820312 -31.984375 21.664062 -31.097656 21.21875 -30.296875 C 20.769531 -29.503906 20.097656 -28.921875 19.203125 -28.546875 C 18.503906 -28.265625 17.8125 -28.175781 17.125 -28.28125 C 16.4375 -28.382812 15.742188 -28.503906 15.046875 -28.640625 C 14.359375 -28.773438 13.6875 -28.757812 13.03125 -28.59375 C 12.613281 -28.519531 12.195312 -28.238281 11.78125 -27.75 C 11.363281 -27.269531 11.128906 -26.734375 11.078125 -26.140625 C 11.023438 -25.554688 11.296875 -25.039062 11.890625 -24.59375 C 12.335938 -24.28125 12.972656 -24.140625 13.796875 -24.171875 C 14.628906 -24.210938 15.484375 -24.265625 16.359375 -24.328125 C 17.242188 -24.398438 17.96875 -24.332031 18.53125 -24.125 C 19.425781 -23.78125 20.054688 -23.332031 20.421875 -22.78125 C 20.785156 -22.226562 21 -21.5 21.0625 -20.59375 C 21.207031 -19.519531 21.101562 -18.4375 20.75 -17.34375 C 20.40625 -16.257812 19.664062 -15.546875 18.53125 -15.203125 C 17.832031 -15.023438 17.082031 -15.03125 16.28125 -15.21875 C 15.488281 -15.414062 14.710938 -15.554688 13.953125 -15.640625 C 13.191406 -15.734375 12.519531 -15.5 11.9375 -14.9375 C 11.207031 -14.25 10.898438 -13.632812 11.015625 -13.09375 C 11.140625 -12.5625 11.515625 -12.101562 12.140625 -11.71875 C 12.765625 -11.34375 13.445312 -11.050781 14.1875 -10.84375 C 14.9375 -10.632812 15.550781 -10.515625 16.03125 -10.484375 C 16.757812 -10.453125 17.554688 -10.457031 18.421875 -10.5 C 19.285156 -10.550781 20.128906 -10.535156 20.953125 -10.453125 C 21.785156 -10.367188 22.515625 -10.082031 23.140625 -9.59375 C 23.734375 -9.1875 24.109375 -8.597656 24.265625 -7.828125 C 24.421875 -7.066406 24.445312 -6.296875 24.34375 -5.515625 C 24.238281 -4.742188 24.082031 -4.066406 23.875 -3.484375 C 23.351562 -2.203125 22.609375 -1.378906 21.640625 -1.015625 C 20.671875 -0.648438 19.53125 -0.429688 18.21875 -0.359375 C 16.625 -0.296875 15.03125 -0.253906 13.4375 -0.234375 C 11.84375 -0.210938 10.234375 -0.171875 8.609375 -0.109375 Z M 8.609375 -0.109375 "/></g></g></g><g fill="#ffffff" fill-opacity="1"><g transform="translate(226.903364, 256.506541)"><g><path d="M 2.4375 -0.984375 C 1.851562 -1.640625 1.4375 -2.484375 1.1875 -3.515625 C 0.945312 -4.554688 0.816406 -5.675781 0.796875 -6.875 C 0.785156 -8.070312 0.820312 -9.226562 0.90625 -10.34375 C 0.988281 -11.46875 1.050781 -12.429688 1.09375 -13.234375 C 1.15625 -14.171875 1.1875 -15.300781 1.1875 -16.625 C 1.1875 -17.957031 1.226562 -19.367188 1.3125 -20.859375 C 1.40625 -22.347656 1.585938 -23.800781 1.859375 -25.21875 C 2.140625 -26.632812 2.566406 -27.878906 3.140625 -28.953125 C 3.710938 -30.023438 4.484375 -30.804688 5.453125 -31.296875 C 6.484375 -31.804688 7.507812 -31.941406 8.53125 -31.703125 C 9.550781 -31.460938 10.492188 -31.003906 11.359375 -30.328125 C 12.222656 -29.648438 12.914062 -28.878906 13.4375 -28.015625 C 14.4375 -26.429688 15.289062 -24.789062 16 -23.09375 C 16.71875 -21.394531 17.59375 -19.734375 18.625 -18.109375 C 18.59375 -18.941406 18.515625 -19.882812 18.390625 -20.9375 C 18.273438 -21.988281 18.21875 -23.0625 18.21875 -24.15625 C 18.21875 -25.25 18.34375 -26.285156 18.59375 -27.265625 C 18.851562 -28.253906 19.316406 -29.09375 19.984375 -29.78125 C 20.847656 -30.6875 21.765625 -31.144531 22.734375 -31.15625 C 23.703125 -31.175781 24.566406 -30.863281 25.328125 -30.21875 C 26.085938 -29.582031 26.535156 -28.675781 26.671875 -27.5 C 26.910156 -25.90625 27.125 -24.085938 27.3125 -22.046875 C 27.507812 -20.003906 27.597656 -17.910156 27.578125 -15.765625 C 27.554688 -13.628906 27.390625 -11.554688 27.078125 -9.546875 C 26.773438 -7.535156 26.257812 -5.753906 25.53125 -4.203125 C 24.738281 -2.503906 23.863281 -1.507812 22.90625 -1.21875 C 21.957031 -0.925781 20.960938 -1.109375 19.921875 -1.765625 C 18.890625 -2.421875 17.867188 -3.367188 16.859375 -4.609375 C 15.859375 -5.859375 14.914062 -7.191406 14.03125 -8.609375 C 13.15625 -10.023438 12.378906 -11.335938 11.703125 -12.546875 C 11.023438 -13.765625 10.515625 -14.664062 10.171875 -15.25 C 10.097656 -14.90625 9.96875 -14.195312 9.78125 -13.125 C 9.59375 -12.050781 9.34375 -10.820312 9.03125 -9.4375 C 8.71875 -8.0625 8.351562 -6.695312 7.9375 -5.34375 C 7.519531 -4 7.039062 -2.84375 6.5 -1.875 C 5.96875 -0.90625 5.363281 -0.296875 4.6875 -0.046875 C 4.019531 0.191406 3.269531 -0.117188 2.4375 -0.984375 Z M 2.4375 -0.984375 "/></g></g></g><g fill="#d90429" fill-opacity="1"><g transform="translate(271.255843, 169.836821)"><g><path d="M 1.40625 -0.6875 L -3.046875 -9.828125 L -2.015625 -10.328125 L -1.046875 -9.015625 L -0.984375 -9.046875 C -1.035156 -9.628906 -0.882812 -10.1875 -0.53125 -10.71875 C -0.175781 -11.257812 0.359375 -11.703125 1.078125 -12.046875 C 2.066406 -12.535156 2.96875 -12.660156 3.78125 -12.421875 C 4.601562 -12.191406 5.285156 -11.519531 5.828125 -10.40625 L 8.8125 -4.296875 L 7.328125 -3.578125 L 4.390625 -9.609375 C 3.722656 -10.960938 2.726562 -11.316406 1.40625 -10.671875 C 0.875 -10.410156 0.484375 -10.066406 0.234375 -9.640625 C -0.00390625 -9.222656 -0.113281 -8.753906 -0.09375 -8.234375 C -0.0703125 -7.722656 0.0625 -7.210938 0.3125 -6.703125 L 2.890625 -1.40625 Z M 1.40625 -0.6875 "/></g></g></g><g fill="#d90429" fill-opacity="1"><g transform="translate(281.364954, 164.908323)"><g><path d="M -7.640625 -8.90625 C -8.191406 -8.632812 -8.691406 -8.550781 -9.140625 -8.65625 C -9.597656 -8.757812 -9.941406 -9.050781 -10.171875 -9.53125 C -10.398438 -10.007812 -10.414062 -10.457031 -10.21875 -10.875 C -10.03125 -11.289062 -9.660156 -11.632812 -9.109375 -11.90625 C -8.554688 -12.175781 -8.046875 -12.257812 -7.578125 -12.15625 C -7.109375 -12.0625 -6.757812 -11.773438 -6.53125 -11.296875 C -6.300781 -10.816406 -6.289062 -10.363281 -6.5 -9.9375 C -6.707031 -9.519531 -7.085938 -9.175781 -7.640625 -8.90625 Z M -8.03125 -9.6875 C -7.769531 -9.8125 -7.597656 -9.972656 -7.515625 -10.171875 C -7.441406 -10.367188 -7.457031 -10.578125 -7.5625 -10.796875 C -7.664062 -11.003906 -7.816406 -11.140625 -8.015625 -11.203125 C -8.222656 -11.273438 -8.457031 -11.25 -8.71875 -11.125 C -8.96875 -11 -9.128906 -10.832031 -9.203125 -10.625 C -9.285156 -10.425781 -9.273438 -10.222656 -9.171875 -10.015625 C -9.066406 -9.796875 -8.910156 -9.65625 -8.703125 -9.59375 C -8.503906 -9.53125 -8.28125 -9.5625 -8.03125 -9.6875 Z M -8.03125 -9.6875 "/></g></g></g><g fill="#d90429" fill-opacity="1"><g transform="translate(281.41162, 164.885572)"><g><path d="M 3.9375 -1.921875 L 0.78125 -8.40625 C 0.507812 -8.945312 0.1875 -9.285156 -0.1875 -9.421875 C -0.5625 -9.554688 -1.046875 -9.484375 -1.640625 -9.203125 C -2.035156 -9.003906 -2.378906 -8.757812 -2.671875 -8.46875 C -2.972656 -8.1875 -3.238281 -7.878906 -3.46875 -7.546875 L -4.125 -8.890625 C -3.957031 -9.109375 -3.695312 -9.375 -3.34375 -9.6875 C -2.988281 -10 -2.53125 -10.296875 -1.96875 -10.578125 C -1.09375 -10.992188 -0.304688 -11.128906 0.390625 -10.984375 C 1.097656 -10.847656 1.6875 -10.304688 2.15625 -9.359375 L 5.421875 -2.640625 Z M 3.9375 -1.921875 "/></g></g></g><g fill="#d90429" fill-opacity="1"><g transform="translate(286.948237, 162.621971)"><g><path d="M 1.390625 -0.171875 L 0.984375 -3.671875 C 0.890625 -4.453125 0.992188 -5.03125 1.296875 -5.40625 C 1.609375 -5.789062 2.019531 -6.082031 2.53125 -6.28125 L 2.546875 -6.34375 L 0.40625 -6.890625 L 0.328125 -7.5 C 0.273438 -8 0.390625 -8.492188 0.671875 -8.984375 C 0.960938 -9.472656 1.394531 -9.890625 1.96875 -10.234375 C 2.539062 -10.585938 3.269531 -10.816406 4.15625 -10.921875 C 4.894531 -11.003906 5.597656 -10.96875 6.265625 -10.8125 C 6.941406 -10.65625 7.503906 -10.335938 7.953125 -9.859375 C 8.398438 -9.390625 8.675781 -8.742188 8.78125 -7.921875 L 9.578125 -1.125 L 7.921875 -0.9375 L 7.140625 -7.578125 C 7.046875 -8.398438 6.722656 -8.953125 6.171875 -9.234375 C 5.628906 -9.523438 5.007812 -9.628906 4.3125 -9.546875 C 3.539062 -9.460938 2.957031 -9.234375 2.5625 -8.859375 C 2.164062 -8.492188 1.992188 -8.078125 2.046875 -7.609375 L 4.15625 -6.84375 L 4.09375 -5.953125 C 3.632812 -5.898438 3.253906 -5.703125 2.953125 -5.359375 C 2.660156 -5.015625 2.554688 -4.515625 2.640625 -3.859375 L 3.046875 -0.359375 Z M 1.390625 -0.171875 "/></g></g></g><g fill="#d90429" fill-opacity="1"><g transform="translate(297.969811, 161.321365)"><g><path d="M -5.359375 -11.234375 C -6.128906 -11.140625 -6.691406 -11.226562 -7.046875 -11.5 C -7.410156 -11.78125 -7.613281 -12.117188 -7.65625 -12.515625 C -7.675781 -12.703125 -7.671875 -12.90625 -7.640625 -13.125 C -7.617188 -13.34375 -7.566406 -13.523438 -7.484375 -13.671875 L -6.09375 -13.609375 C -6.144531 -13.453125 -6.15625 -13.253906 -6.125 -13.015625 C -6.113281 -12.859375 -6.050781 -12.722656 -5.9375 -12.609375 C -5.820312 -12.503906 -5.648438 -12.46875 -5.421875 -12.5 L -0.75 -13.046875 L -0.59375 -11.796875 Z M -5.359375 -11.234375 "/></g></g></g><g fill="#d90429" fill-opacity="1"><g transform="translate(296.856342, 161.29928)"><g><path d="M 5.515625 0.9375 C 4.054688 0.738281 3.054688 0.269531 2.515625 -0.46875 C 1.984375 -1.21875 1.800781 -2.207031 1.96875 -3.4375 L 2.828125 -9.875 L 4.46875 -9.65625 L 3.609375 -3.203125 C 3.390625 -1.566406 4.085938 -0.640625 5.703125 -0.421875 C 6.523438 -0.316406 7.160156 -0.441406 7.609375 -0.796875 C 8.066406 -1.148438 8.351562 -1.738281 8.46875 -2.5625 L 9.328125 -9.015625 L 10.953125 -8.796875 L 10.09375 -2.359375 C 9.925781 -1.128906 9.484375 -0.226562 8.765625 0.34375 C 8.054688 0.925781 6.972656 1.125 5.515625 0.9375 Z M 5.515625 0.9375 "/></g></g></g><g fill="#d90429" fill-opacity="1"><g transform="translate(306.88009, 162.571533)"><g><path d="M 4.6875 2.03125 C 3.59375 1.601562 2.847656 1.007812 2.453125 0.25 C 2.066406 -0.5 2.078125 -1.398438 2.484375 -2.453125 L 2.90625 -3.515625 C 3.125 -4.078125 3.378906 -4.492188 3.671875 -4.765625 C 3.960938 -5.035156 4.253906 -5.257812 4.546875 -5.4375 C 4.835938 -5.613281 5.09375 -5.773438 5.3125 -5.921875 C 5.539062 -6.066406 5.710938 -6.273438 5.828125 -6.546875 C 5.921875 -6.785156 5.925781 -6.984375 5.84375 -7.140625 C 5.757812 -7.296875 5.628906 -7.410156 5.453125 -7.484375 C 5.304688 -7.546875 5.144531 -7.578125 4.96875 -7.578125 C 4.789062 -7.585938 4.613281 -7.59375 4.4375 -7.59375 L 4.53125 -8.84375 C 4.789062 -8.894531 5.085938 -8.890625 5.421875 -8.828125 C 5.753906 -8.765625 6.03125 -8.6875 6.25 -8.59375 C 6.894531 -8.34375 7.285156 -8 7.421875 -7.5625 C 7.554688 -7.125 7.523438 -6.65625 7.328125 -6.15625 C 7.160156 -5.726562 6.953125 -5.40625 6.703125 -5.1875 C 6.453125 -4.96875 6.175781 -4.765625 5.875 -4.578125 C 5.5625 -4.367188 5.289062 -4.15625 5.0625 -3.9375 C 4.832031 -3.726562 4.632812 -3.410156 4.46875 -2.984375 L 4.0625 -1.953125 C 3.851562 -1.421875 3.78125 -0.972656 3.84375 -0.609375 C 3.90625 -0.253906 4.054688 0.0234375 4.296875 0.234375 C 4.546875 0.453125 4.835938 0.628906 5.171875 0.765625 C 6.347656 1.222656 7.15625 0.898438 7.59375 -0.203125 L 10.21875 -6.921875 L 11.765625 -6.3125 L 9.109375 0.5 C 8.753906 1.382812 8.195312 1.960938 7.4375 2.234375 C 6.675781 2.515625 5.757812 2.445312 4.6875 2.03125 Z M 4.6875 2.03125 "/></g></g></g><g fill="#d90429" fill-opacity="1"><g transform="translate(316.455616, 166.315608)"><g><path d="M -2.0625 -13.453125 L -1.765625 -14.234375 C -1.523438 -14.171875 -1.265625 -14.140625 -0.984375 -14.140625 C -0.710938 -14.140625 -0.46875 -14.175781 -0.25 -14.25 C -0.03125 -14.320312 0.117188 -14.46875 0.203125 -14.6875 C 0.265625 -14.832031 0.269531 -14.96875 0.21875 -15.09375 C 0.164062 -15.226562 0.046875 -15.332031 -0.140625 -15.40625 C -0.265625 -15.445312 -0.390625 -15.46875 -0.515625 -15.46875 C -0.648438 -15.46875 -0.773438 -15.46875 -0.890625 -15.46875 L -0.859375 -16.5625 C -0.554688 -16.644531 -0.253906 -16.660156 0.046875 -16.609375 C 0.347656 -16.554688 0.585938 -16.5 0.765625 -16.4375 C 1.222656 -16.257812 1.53125 -15.992188 1.6875 -15.640625 C 1.851562 -15.285156 1.863281 -14.910156 1.71875 -14.515625 C 1.632812 -14.316406 1.523438 -14.148438 1.390625 -14.015625 C 1.253906 -13.878906 1.113281 -13.765625 0.96875 -13.671875 L 3.765625 -12.578125 L 3.296875 -11.359375 Z M -2.0625 -13.453125 "/></g></g></g><g fill="#d90429" fill-opacity="1"><g transform="translate(315.447231, 165.961272)"><g><path d="M 3.6875 2.359375 L 7.59375 -3.71875 C 7.914062 -4.21875 8.035156 -4.660156 7.953125 -5.046875 C 7.878906 -5.441406 7.566406 -5.816406 7.015625 -6.171875 C 6.640625 -6.421875 6.253906 -6.597656 5.859375 -6.703125 C 5.460938 -6.804688 5.0625 -6.875 4.65625 -6.90625 L 5.453125 -8.15625 C 5.722656 -8.125 6.082031 -8.035156 6.53125 -7.890625 C 6.988281 -7.742188 7.484375 -7.503906 8.015625 -7.171875 C 8.828125 -6.640625 9.359375 -6.035156 9.609375 -5.359375 C 9.859375 -4.691406 9.691406 -3.910156 9.109375 -3.015625 L 5.078125 3.265625 Z M 3.6875 2.359375 "/></g></g></g><g fill="#d90429" fill-opacity="1"><g transform="translate(321.140765, 169.433141)"><g><path d="M 2.453125 2.578125 C 2.097656 2.242188 1.789062 1.882812 1.53125 1.5 C 1.269531 1.125 1.050781 0.660156 0.875 0.109375 L 2.109375 -0.453125 C 2.203125 -0.148438 2.332031 0.160156 2.5 0.484375 C 2.664062 0.816406 2.914062 1.140625 3.25 1.453125 C 3.914062 2.078125 4.664062 2.320312 5.5 2.1875 C 6.332031 2.0625 7.191406 1.53125 8.078125 0.59375 C 8.941406 -0.3125 9.410156 -1.1875 9.484375 -2.03125 C 9.554688 -2.875 9.191406 -3.671875 8.390625 -4.421875 C 8.109375 -4.691406 7.789062 -4.929688 7.4375 -5.140625 C 7.082031 -5.359375 6.734375 -5.519531 6.390625 -5.625 L 7.34375 -6.625 C 7.71875 -6.519531 8.085938 -6.34375 8.453125 -6.09375 C 8.828125 -5.851562 9.171875 -5.582031 9.484375 -5.28125 C 10.296875 -4.507812 10.800781 -3.726562 11 -2.9375 C 11.195312 -2.144531 11.140625 -1.351562 10.828125 -0.5625 C 10.523438 0.226562 10.015625 1.003906 9.296875 1.765625 C 8.179688 2.953125 7.023438 3.632812 5.828125 3.8125 C 4.640625 4 3.515625 3.585938 2.453125 2.578125 Z M 2.453125 2.578125 "/></g></g></g><g fill="#d90429" fill-opacity="1"><g transform="translate(327.140648, 175.222056)"><g><path d="M 2.296875 3.34375 C 2.085938 3.082031 1.9375 2.796875 1.84375 2.484375 C 1.757812 2.171875 1.769531 1.847656 1.875 1.515625 C 1.976562 1.191406 2.234375 0.878906 2.640625 0.578125 L 10.515625 -5.375 C 11.066406 -5.789062 11.535156 -6.023438 11.921875 -6.078125 C 12.304688 -6.128906 12.644531 -6.109375 12.9375 -6.015625 L 12.984375 -6.078125 L 11.046875 -8.640625 L 12.34375 -9.078125 L 15.5 -4.90625 L 14.453125 -4.125 C 14.171875 -4.5 13.804688 -4.734375 13.359375 -4.828125 C 12.921875 -4.929688 12.382812 -4.742188 11.75 -4.265625 L 3.796875 1.75 C 3.566406 1.914062 3.4375 2.085938 3.40625 2.265625 C 3.382812 2.441406 3.457031 2.640625 3.625 2.859375 C 3.695312 2.953125 3.78125 3.039062 3.875 3.125 C 3.976562 3.207031 4.070312 3.28125 4.15625 3.34375 L 3.34375 4.25 C 3.101562 4.132812 2.898438 3.992188 2.734375 3.828125 C 2.566406 3.671875 2.421875 3.507812 2.296875 3.34375 Z M 2.296875 3.34375 "/></g></g></g><g fill="#d90429" fill-opacity="1"><g transform="translate(330.306227, 178.815587)"><g><path d="M 2.65625 5.828125 C 2.300781 5.109375 2.140625 4.421875 2.171875 3.765625 C 2.203125 3.109375 2.421875 2.566406 2.828125 2.140625 L 2.796875 2.078125 L 1.328125 2.6875 L 0.734375 1.484375 L 9.859375 -3 L 10.578125 -1.53125 L 5.296875 1.0625 C 4.453125 1.476562 3.882812 2.023438 3.59375 2.703125 C 3.3125 3.390625 3.363281 4.125 3.75 4.90625 C 4.382812 6.207031 5.378906 6.523438 6.734375 5.859375 L 12.75 2.90625 L 13.484375 4.390625 L 7.375 7.390625 C 6.269531 7.929688 5.328125 8.050781 4.546875 7.75 C 3.765625 7.457031 3.132812 6.816406 2.65625 5.828125 Z M 2.65625 5.828125 "/></g></g></g><g fill="#d90429" fill-opacity="1"><g transform="translate(335.38971, 189.179458)"><g><path d="M 9.125 -8.140625 L 12.640625 -9.875 L 13.359375 -8.421875 L 9.84375 -6.6875 Z M 9.125 -8.140625 "/></g></g></g><g fill="#d90429" fill-opacity="1"><g transform="translate(334.750869, 188.310312)"><g><path d="M 0.8125 3.71875 C 0.726562 3.394531 0.703125 3.066406 0.734375 2.734375 C 0.765625 2.410156 0.890625 2.113281 1.109375 1.84375 C 1.328125 1.582031 1.679688 1.382812 2.171875 1.25 L 10.28125 -0.96875 L 10.71875 0.625 L 2.8125 2.796875 C 2.53125 2.867188 2.34375 2.972656 2.25 3.109375 C 2.164062 3.253906 2.160156 3.46875 2.234375 3.75 C 2.265625 3.851562 2.304688 3.960938 2.359375 4.078125 C 2.421875 4.191406 2.484375 4.300781 2.546875 4.40625 L 1.453125 4.921875 C 1.273438 4.734375 1.140625 4.535156 1.046875 4.328125 C 0.953125 4.128906 0.875 3.925781 0.8125 3.71875 Z M 0.8125 3.71875 "/></g></g></g><g fill="#d90429" fill-opacity="1"><g transform="translate(336.30363, 192.680986)"><g><path d="M 0.25 5.59375 C 0.132812 4.125 0.382812 3.050781 1 2.375 C 1.625 1.695312 2.550781 1.304688 3.78125 1.203125 L 10.265625 0.6875 L 10.390625 2.328125 L 3.890625 2.84375 C 2.253906 2.976562 1.5 3.859375 1.625 5.484375 C 1.695312 6.316406 1.953125 6.914062 2.390625 7.28125 C 2.828125 7.65625 3.457031 7.804688 4.28125 7.734375 L 14.421875 6.9375 L 14.546875 8.578125 L 4.421875 9.375 C 3.191406 9.476562 2.21875 9.238281 1.5 8.65625 C 0.789062 8.070312 0.375 7.050781 0.25 5.59375 Z M 0.25 5.59375 "/></g></g></g><g fill="#d90429" fill-opacity="1"><g transform="translate(337.195073, 203.873504)"><g><path d="M 11.015625 -6.796875 C 10.960938 -7.460938 11.207031 -7.960938 11.75 -8.296875 L 10.90625 -8.859375 C 10.84375 -9.578125 10.96875 -10.148438 11.28125 -10.578125 C 11.601562 -11.015625 12.097656 -11.257812 12.765625 -11.3125 C 13.472656 -11.375 14.007812 -11.207031 14.375 -10.8125 C 14.75 -10.425781 14.957031 -9.960938 15 -9.421875 L 15.3125 -5.46875 L 14.203125 -5.375 L 13.921875 -9.09375 C 13.890625 -9.375 13.785156 -9.601562 13.609375 -9.78125 C 13.429688 -9.96875 13.160156 -10.046875 12.796875 -10.015625 C 12.535156 -9.992188 12.320312 -9.90625 12.15625 -9.75 C 12 -9.601562 11.9375 -9.367188 11.96875 -9.046875 L 12.96875 -8.390625 L 13 -7.9375 C 12.34375 -7.851562 12.035156 -7.570312 12.078125 -7.09375 C 12.097656 -6.882812 12.179688 -6.71875 12.328125 -6.59375 C 12.484375 -6.476562 12.671875 -6.429688 12.890625 -6.453125 L 13.125 -6.46875 L 13.21875 -5.28125 L 12.953125 -5.265625 C 12.335938 -5.210938 11.867188 -5.328125 11.546875 -5.609375 C 11.234375 -5.890625 11.054688 -6.285156 11.015625 -6.796875 Z M 11.015625 -6.796875 "/></g></g></g><g fill="#d90429" fill-opacity="1"><g transform="translate(337.262794, 202.710369)"><g><path d="M -1.0625 4.90625 C -0.863281 3.832031 -0.429688 3.035156 0.234375 2.515625 C 0.898438 2.003906 1.84375 1.851562 3.0625 2.0625 L 9.75 3.25 L 9.46875 4.875 L 2.875 3.703125 C 1.382812 3.441406 0.515625 4.035156 0.265625 5.484375 C 0.109375 6.335938 0.257812 7.046875 0.71875 7.609375 C 1.1875 8.179688 1.882812 8.546875 2.8125 8.703125 L 8.609375 9.734375 L 8.328125 11.375 L -1.6875 9.609375 L -1.453125 8.25 L 0.046875 8.4375 L 0.0625 8.34375 C -0.394531 8.03125 -0.726562 7.578125 -0.9375 6.984375 C -1.15625 6.390625 -1.195312 5.695312 -1.0625 4.90625 Z M -1.0625 4.90625 "/></g></g></g></svg>